
<?xml version="1.0" encoding="UTF-8" standalone="no"?>
<!DOCTYPE svg  PUBLIC '-//W3C//DTD SVG 1.1//EN'  'http://www.w3.org/Graphics/SVG/1.1/DTD/svg11.dtd'>
<svg xmlns="http://www.w3.org/2000/svg">
<defs>
<font id="CiscoSansTT-Regular" horiz-adv-x="600">
<font-face underline-position="-6" font-weight="400" descent="-200" panose-1="2 11 5 3 2 2 1 2 3 3" units-per-em="1000" unicode-range="U+0020-2666" bbox="-144 -249 1196 920" x-height="520" underline-thickness="85" font-family="CiscoSansTT" ascent="800" cap-height="720"/>
<missing-glyph horiz-adv-x="1000"/>
<glyph glyph-name=".notdef" horiz-adv-x="1000"/>
<glyph glyph-name=".null" horiz-adv-x="0"/>
<glyph glyph-name="nonmarkingreturn" horiz-adv-x="1000"/>
<glyph glyph-name="space" horiz-adv-x="300" unicode=" "/>
<glyph glyph-name="exclam" horiz-adv-x="285" unicode="!" d="M105 240l-20 480h115l-20 -480h-75zM85 0v116h115v-116h-115z"/>
<glyph glyph-name="quotedbl" d="M325 490h-70l-15 153v92h100v-92zM165 490h-70l-15 153v92h100v-92z" unicode='&quot;'/>
<glyph glyph-name="numbersign" d="M186 255h211l16 190h-211zM40 520h85l16 180h84l-16 -180h211l16 180h84l-16 -180h76v-75h-83l-16 -190h79v-75h-86l-15 -180h-84l15 180h-211l-15 -180h-84l15 180h-75v75h82l16 190h-78v75z" unicode="#"/>
<glyph glyph-name="dollar" d="M258 -12q-45 5 -84.5 20.5t-70 41t-51 62t-27.5 83.5h105q9 -60 51 -93t123 -33q86 0 127.5 35t41.5 86q0 24 -8 43t-31 36t-65 32.5t-111 33.5q-58 15 -97.5 34.5t-64 44t-35.5 54.5t-11 66q0 34 13 64.5t39.5 54.5t65.5 39.5t90 20.5v117h89v-117q99 -10 155 -58 t68 -129h-105q-9 51 -49.5 78t-121.5 27q-76 0 -109 -26.5t-33 -64.5q0 -19 5.5 -35.5t24 -31.5t53.5 -29.5t95 -29.5q69 -18 116 -40t75.5 -49.5t41 -60t12.5 -70.5t-15 -73t-43.5 -63t-71.5 -47t-98 -24v-122h-89v123z" unicode="$"/>
<glyph glyph-name="percent" horiz-adv-x="841" unicode="%" d="M546 154q0 -54 26 -76.5t63 -22.5t64 22.5t27 76.5t-27 76.5t-64 22.5t-63 -22.5t-26 -76.5zM806 154q0 -42 -14.5 -74t-38.5 -53t-54.5 -31.5t-63.5 -10.5t-63.5 10.5t-54 31.5t-38 53t-14.5 74t14.5 74t38 53t54 31.5t63.5 10.5t63.5 -10.5t54.5 -31.5t38.5 -53 t14.5 -74zM274 0h-96l382 700h96zM116 546q0 -54 26 -76.5t63 -22.5t64 22.5t27 76.5t-27 76.5t-64 22.5t-63 -22.5t-26 -76.5zM376 546q0 -42 -14.5 -74t-38.5 -53t-54.5 -31.5t-63.5 -10.5t-63.5 10.5t-54 31.5t-38 53t-14.5 74t14.5 74t38 53t54 31.5t63.5 10.5 t63.5 -10.5t54.5 -31.5t38.5 -53t14.5 -74z"/>
<glyph glyph-name="ampersand" horiz-adv-x="685" unicode="&amp;" d="M187 545q0 -17 3.5 -30.5t12.5 -28t24 -31t38 -38.5q62 33 90 64.5t28 75.5q0 14 -5.5 28t-17.5 25.5t-30 19t-43 7.5q-27 0 -46 -8.5t-31 -22t-17.5 -30t-5.5 -31.5zM293 68q45 0 81 16t64 43l-195 191q-50 -28 -76.5 -59.5t-26.5 -79.5q0 -51 39.5 -81t113.5 -30z M625 329q-6 -48 -22.5 -96t-45.5 -93l98 -92l-71 -63l-86 83q-40 -38 -93 -60.5t-119 -22.5q-54 0 -99.5 13.5t-78 38t-50.5 59t-18 76.5q0 39 10 68.5t29 53.5t46 43.5t61 38.5q-26 27 -44 48t-28.5 40t-15 38t-4.5 42q0 32 14 62.5t39 54.5t60 39t78 15t77.5 -13.5 t59 -35.5t38 -50t13.5 -56q0 -37 -11 -67t-30.5 -54.5t-46.5 -44t-59 -35.5l167 -158q17 33 28 69t16 70z"/>
<glyph glyph-name="quotesingle" horiz-adv-x="270" unicode="&apos;" d="M170 490h-70l-15 153v92h100v-92z"/>
<glyph glyph-name="parenleft" horiz-adv-x="340" unicode="(" d="M162 320q0 -76 11.5 -144t31.5 -129t47 -115t58 -102h-79q-29 38 -58.5 89t-53.5 113t-39 134.5t-15 153.5t15 153.5t39 134.5t53.5 113t58.5 89h79q-31 -48 -58 -102t-47 -115t-31.5 -129t-11.5 -144z"/>
<glyph glyph-name="parenright" horiz-adv-x="340" unicode=")" d="M178 320q0 76 -11.5 144t-31.5 129t-47 115t-58 102h79q29 -38 58.5 -89t53.5 -113t39 -134.5t15 -153.5t-15 -153.5t-39 -134.5t-53.5 -113t-58.5 -89h-79q31 48 58 102t47 115t31.5 129t11.5 144z"/>
<glyph glyph-name="asterisk" horiz-adv-x="470" unicode="*" d="M261 587l135 62l29 -84l-147 -30l100 -108l-72 -52l-72 128l-73 -129l-71 53l100 109l-145 29l29 84l133 -61l-17 147h88z"/>
<glyph glyph-name="plus" d="M255 279h-165v85h165v168h91v-168h164v-85h-164v-167h-91v167z" unicode="+"/>
<glyph glyph-name="comma" horiz-adv-x="300" unicode="," d="M208 15q0 -43 -11.5 -73t-30.5 -49.5t-42 -29.5t-47 -13v50q28 6 45 28t17 72h-47v116h116v-101z"/>
<glyph glyph-name="hyphen" horiz-adv-x="540" unicode="-" d="M90 280v85h360v-85h-360z"/>
<glyph glyph-name="period" horiz-adv-x="300" unicode="." d="M92 0v116h116v-116h-116z"/>
<glyph glyph-name="slash" horiz-adv-x="400" unicode="/" d="M279 735h91l-249 -825h-91z"/>
<glyph glyph-name="zero" d="M300 -15q-53 0 -99 22t-79.5 67.5t-52.5 114.5t-19 163q0 97 19 165.5t53 112.5t79.5 64.5t98.5 20.5t98.5 -20.5t79.5 -64.5t53 -112.5t19 -165.5q0 -94 -19 -163t-52.5 -114.5t-79.5 -67.5t-99 -22zM300 65q77 0 114.5 69.5t37.5 217.5q0 147 -37.5 215t-114.5 68 t-114.5 -68t-37.5 -215q0 -148 37.5 -217.5t114.5 -69.5z" unicode="0"/>
<glyph glyph-name="one" d="M290 0v600l-157 -81v99l158 82h94v-700h-95z" unicode="1"/>
<glyph glyph-name="two" d="M60 517q6 42 25.5 78t51.5 63t74.5 42t94.5 15q49 0 90.5 -14t72 -39.5t48 -62.5t17.5 -83q0 -36 -8.5 -66.5t-28 -62t-51.5 -67t-79 -80.5l-160 -152h324v-88h-454v88l228 219q36 34 60.5 61.5t40.5 51.5t23 46.5t7 48.5q0 54 -34.5 86.5t-97.5 32.5q-60 0 -98.5 -31 t-44.5 -86h-101z" unicode="2"/>
<glyph glyph-name="three" d="M549 191q0 -45 -17.5 -82.5t-50 -65t-78.5 -42.5t-102 -15q-110 0 -175 52t-77 136h102q12 -53 48 -80.5t100 -27.5q72 0 112 35t40 92q0 36 -12.5 61t-32.5 41t-44.5 23t-48.5 7h-58v83h56q20 0 40.5 7t37.5 21t27.5 36.5t10.5 52.5q0 28 -11.5 49t-30 34.5t-43 20 t-49.5 6.5q-59 0 -96 -27.5t-45 -72.5h-101q6 41 27 74t53 56.5t74.5 36.5t92.5 13q44 0 85 -11t72.5 -33.5t50.5 -57t19 -81.5q0 -57 -35.5 -100t-90.5 -60q30 -6 57 -20.5t47.5 -37t33 -53.5t12.5 -70z" unicode="3"/>
<glyph glyph-name="four" d="M351 214v331l-200 -331h200zM444 700v-486h113v-82h-113v-132h-93v132h-307v89l300 479h100z" unicode="4"/>
<glyph glyph-name="five" d="M153 170q10 -43 47 -73.5t101 -30.5q32 0 60 11t48.5 32t32 52t11.5 70q0 78 -41 118.5t-109 40.5q-36 0 -73.5 -15t-66.5 -49h-85l15 374h430v-81h-343l-8 -205q29 23 66.5 37t86.5 14q46 0 87 -15t72 -45t49.5 -74.5t18.5 -103.5q0 -49 -17 -93t-49 -77t-79 -52.5 t-107 -19.5q-54 0 -97.5 15.5t-75 41.5t-51 59t-25.5 69h102z" unicode="5"/>
<glyph glyph-name="six" d="M175 226q0 -78 40.5 -119.5t100.5 -41.5q28 0 53 10t44 29.5t29.5 48t10.5 65.5q0 75 -37.5 117.5t-100.5 42.5q-35 0 -61.5 -12.5t-44 -33.5t-26 -48.5t-8.5 -57.5zM332 458q51 0 91.5 -17.5t68.5 -48.5t43 -74.5t15 -94.5q0 -60 -20.5 -105t-53.5 -74.5t-75 -44 t-85 -14.5q-122 0 -184 86t-62 251q0 118 21.5 194t57.5 120t82 61.5t94 17.5q80 0 137 -39.5t74 -108.5h-106q-9 32 -36 51t-70 19q-30 0 -57 -13t-48 -44.5t-35.5 -83.5t-18.5 -129q16 25 36 42.5t42 28t45 15.5t44 5z" unicode="6"/>
<glyph glyph-name="seven" d="M234 0h-109l293 614h-343v86h445v-86z" unicode="7"/>
<glyph glyph-name="eight" d="M165 533q0 -40 16 -65t39 -39.5t50 -21t50 -9.5q19 7 39 19t36.5 28.5t27 38t10.5 49.5q0 25 -10.5 44.5t-28.5 33.5t-42.5 21.5t-51.5 7.5t-51.5 -6.5t-43 -20t-29.5 -33.5t-11 -47zM453 189q0 42 -16 67.5t-41.5 41.5t-56.5 24.5t-60 14.5q-22 -6 -45 -17.5 t-42.5 -29.5t-32 -43t-12.5 -58q0 -26 9.5 -48.5t28 -39.5t47.5 -27t68 -10q77 0 115 35t38 90zM529 535q0 -30 -10 -55t-26.5 -45t-37 -35.5t-41.5 -26.5q25 -11 50 -27t45 -38.5t33 -52t13 -66.5q0 -45 -18.5 -82.5t-52 -64.5t-80.5 -42t-104 -15t-104 14.5t-80.5 41 t-52 62.5t-18.5 79q0 40 12.5 70.5t32.5 53t44 37.5t48 24q-20 9 -40 23t-35.5 33.5t-25.5 45.5t-10 59q0 48 19 83.5t50.5 58.5t73 34t86.5 11t86.5 -10.5t73 -32t50.5 -55.5t19 -82z" unicode="8"/>
<glyph glyph-name="nine" d="M445 474q0 78 -40.5 119.5t-100.5 41.5q-29 0 -54 -10.5t-43.5 -30t-29 -48t-10.5 -64.5q0 -39 10.5 -69t29 -50.5t44 -30.5t54.5 -10q35 0 61.5 12.5t44 33.5t26 48.5t8.5 57.5zM288 242q-48 0 -88 16t-69 46.5t-45 74t-16 98.5q0 54 18 98t49.5 75t74 48t92.5 17 q122 0 184 -83.5t62 -253.5q0 -115 -21 -191t-56 -121t-82 -63t-99 -18q-81 0 -138 40.5t-74 109.5h106q10 -34 37.5 -53t72.5 -19q32 0 59 13t48 44t34 83t17 129q-16 -25 -36 -42.5t-42 -28t-44.5 -15t-43.5 -4.5z" unicode="9"/>
<glyph glyph-name="colon" horiz-adv-x="300" unicode=":" d="M92 404v116h116v-116h-116zM92 0v116h116v-116h-116z"/>
<glyph glyph-name="semicolon" horiz-adv-x="300" unicode=";" d="M208 15q0 -43 -11.5 -73t-30.5 -49.5t-42 -29.5t-47 -13v50q28 6 45 28t17 72h-47v116h116v-101zM92 404v116h116v-116h-116z"/>
<glyph glyph-name="less" d="M185 320l325 -139v-96l-420 190v95l420 190v-96l-325 -139v-5z" unicode="&lt;"/>
<glyph glyph-name="equal" d="M90 382v85h420v-85h-420zM90 177v85h420v-85h-420z" unicode="="/>
<glyph glyph-name="greater" d="M415 325l-325 139v96l420 -190v-95l-420 -190v96l325 139v5z" unicode="&gt;"/>
<glyph glyph-name="question" horiz-adv-x="583" unicode="?" d="M238 209q0 43 6 75.5t19.5 58t36.5 45t56 36.5q46 23 65 54t19 71q0 46 -36.5 74t-98.5 28q-134 0 -151 -116h-104q15 97 83.5 148.5t174.5 51.5q54 0 97.5 -14.5t74 -40t47 -59.5t16.5 -72q0 -64 -35.5 -115t-111.5 -93q-38 -21 -50.5 -50.5t-12.5 -81.5h-95zM230 0v116 h115v-116h-115z"/>
<glyph glyph-name="at" horiz-adv-x="906" unicode="@" d="M423 179q22 0 42.5 12.5t36.5 38t25 65.5t9 96q0 40 -14.5 65t-54.5 25q-32 0 -56 -15.5t-39.5 -43t-23.5 -65t-8 -80.5q0 -27 7.5 -45.5t19 -30.5t26.5 -17t30 -5zM654 95q-23 0 -42 8.5t-33 22t-23 30t-11 32.5q-6 -12 -19 -26.5t-31.5 -27t-41.5 -21t-49 -8.5 q-27 0 -54.5 9t-50 29.5t-36.5 53.5t-14 81q0 58 13.5 108.5t40 87.5t66 58t91.5 21q28 0 55 -15t38 -43l18 51h71l-37 -284q-3 -24 -3 -41q0 -53 49 -53q21 0 41.5 16t36.5 45.5t25.5 72.5t9.5 97q0 61 -23 109.5t-63.5 82t-96 51t-120.5 17.5q-50 0 -106.5 -18 t-103.5 -59.5t-78 -107.5t-31 -162q0 -84 28.5 -145.5t75 -101.5t105 -59t119.5 -19q42 0 81.5 7.5t71.5 18.5v-78q-31 -11 -73.5 -18.5t-87.5 -7.5q-78 0 -152 25t-132 75t-93 126t-35 178q0 78 18.5 139.5t50 108.5t73 80t87.5 54t92.5 30.5t89.5 9.5q75 0 146 -21.5 t126.5 -64t89 -105t33.5 -144.5q0 -63 -14.5 -118.5t-41 -97t-64 -65.5t-82.5 -24z"/>
<glyph glyph-name="A" horiz-adv-x="706" unicode="A" d="M212 265h277l-137 353zM593 0l-71 182h-343l-72 -182h-107l296 720h115l295 -720h-113z"/>
<glyph glyph-name="B" horiz-adv-x="652" unicode="B" d="M177 643v-227h171q66 0 100 31t34 82q0 54 -36.5 84t-103.5 30h-165zM177 338v-255h170q78 0 116 31t38 89q0 66 -37.5 100.5t-112.5 34.5h-174zM334 720q125 0 188 -50.5t63 -140.5q0 -26 -9 -49.5t-24.5 -43.5t-36.5 -34.5t-46 -20.5q28 -5 53 -20t44 -38.5t30 -53.5 t11 -66q0 -96 -69 -149.5t-206 -53.5h-257v720h259z"/>
<glyph glyph-name="C" horiz-adv-x="729" unicode="C" d="M377 71q44 0 81 14t65 38.5t44.5 58t18.5 72.5h103q-3 -53 -26.5 -101.5t-64.5 -85.5t-97.5 -59.5t-125.5 -22.5q-75 0 -136 25t-104 72.5t-66.5 117.5t-23.5 160q0 91 25 161t70 117.5t107 72t136 24.5q65 0 119.5 -20t94.5 -53.5t63.5 -78.5t27.5 -94h-103 q-10 74 -64 117.5t-138 43.5q-52 0 -95 -18t-74 -54t-48 -90.5t-17 -127.5q0 -70 16.5 -124t46.5 -90.5t72 -55.5t93 -19z"/>
<glyph glyph-name="D" horiz-adv-x="708" unicode="D" d="M177 639v-555h135q119 0 183.5 69.5t64.5 206.5q0 71 -17.5 123.5t-50 87t-78.5 51.5t-104 17h-133zM309 720q79 0 144.5 -21.5t112 -66t72 -112t25.5 -160.5q0 -87 -26.5 -154.5t-74.5 -113t-114.5 -69t-145.5 -23.5h-227v720h234z"/>
<glyph glyph-name="E" horiz-adv-x="574" unicode="E" d="M495 324h-318v-238h347v-86h-449v720h449v-86h-347v-226h318v-84z"/>
<glyph glyph-name="F" horiz-adv-x="561" unicode="F" d="M481 304h-304v-304h-102v720h441v-86h-339v-245h304v-85z"/>
<glyph glyph-name="G" horiz-adv-x="738" unicode="G" d="M674 0h-75l-14 86q-34 -48 -91.5 -74.5t-129.5 -26.5q-67 0 -125.5 24.5t-101.5 72.5t-67.5 118t-24.5 161q0 93 26 163t70.5 117t104.5 70.5t129 23.5q61 0 113 -17.5t91 -48t63.5 -71.5t30.5 -89h-100q-14 66 -66 103.5t-132 37.5q-47 0 -88.5 -17.5t-72 -53.5 t-48 -90.5t-17.5 -127.5t19 -127.5t50.5 -91t72.5 -55t85 -18.5q42 0 79.5 13t65.5 37t44.5 57t16.5 73v56h-211v82h303v-387z"/>
<glyph glyph-name="H" horiz-adv-x="707" unicode="H" d="M632 720v-720h-103v321h-352v-321h-102v720h102v-313h352v313h103z"/>
<glyph glyph-name="I" horiz-adv-x="252" unicode="I" d="M177 720v-720h-102v720h102z"/>
<glyph glyph-name="J" horiz-adv-x="540" unicode="J" d="M128 202q3 -69 35.5 -100t86.5 -31q56 0 87 36.5t31 104.5v508h102v-509q0 -109 -58 -167.5t-166 -58.5q-49 0 -89 16.5t-69 45.5t-45.5 68.5t-17.5 86.5h103z"/>
<glyph glyph-name="K" horiz-adv-x="632" unicode="K" d="M492 0l-315 339v-339h-102v720h102v-320l293 320h126l-327 -344l358 -376h-135z"/>
<glyph glyph-name="L" horiz-adv-x="552" unicode="L" d="M178 720v-629h339v-91h-442v720h103z"/>
<glyph glyph-name="M" horiz-adv-x="871" unicode="M" d="M396 0l-222 564v-564h-99v720h142l229 -600l216 600h134v-720h-96v559l-208 -559h-96z"/>
<glyph glyph-name="N" horiz-adv-x="719" unicode="N" d="M644 720v-720h-129l-347 603v-603h-93v720h135l343 -598v598h91z"/>
<glyph glyph-name="O" horiz-adv-x="774" unicode="O" d="M387 68q53 0 96.5 19t75 56t49 91.5t17.5 125.5t-17.5 125.5t-49 91.5t-75 56t-96.5 19t-96.5 -19t-75 -56t-49 -91.5t-17.5 -125.5t17.5 -125.5t49 -91.5t75 -56t96.5 -19zM387 -15q-75 0 -138 25t-108 73t-70.5 118t-25.5 159q0 91 27 161t73.5 117.5t109 72 t133.5 24.5t133.5 -23.5t108.5 -71t72.5 -117.5t26.5 -163q0 -89 -26 -159t-72 -118t-108.5 -73t-135.5 -25z"/>
<glyph glyph-name="P" horiz-adv-x="631" unicode="P" d="M177 637v-297h130q96 0 137 37.5t41 108.5q0 72 -44.5 111.5t-129.5 39.5h-134zM309 720q137 0 209.5 -59.5t72.5 -174.5q0 -110 -71.5 -169.5t-214.5 -59.5h-128v-257h-102v720h234z"/>
<glyph glyph-name="Q" horiz-adv-x="774" unicode="Q" d="M387 68q53 0 96.5 19t75 56t49 91.5t17.5 125.5t-17.5 125.5t-49 91.5t-75 56t-96.5 19t-96.5 -19t-75 -56t-49 -91.5t-17.5 -125.5t17.5 -125.5t49 -91.5t75 -56t96.5 -19zM387 -15q-75 0 -138 25t-108 73t-70.5 118t-25.5 159q0 91 27 161t73.5 117.5t109 72 t133.5 24.5t133.5 -23.5t108.5 -71t72.5 -117.5t26.5 -163q0 -100 -32 -174t-87 -122l116 -145l-82 -54l-106 152q-69 -32 -151 -32z"/>
<glyph glyph-name="R" horiz-adv-x="652" unicode="R" d="M177 637v-280h136q85 0 129.5 37t44.5 100q0 70 -43 106.5t-134 36.5h-133zM522 0l-174 274h-171v-274h-102v720h233q138 0 211.5 -58.5t73.5 -167.5q0 -41 -11.5 -73t-31.5 -56t-46 -41.5t-56 -28.5l194 -295h-120z"/>
<glyph glyph-name="S" horiz-adv-x="653" unicode="S" d="M506 195q0 25 -8 44.5t-32.5 36.5t-69 33.5t-117.5 36.5q-63 17 -105 37t-67.5 45t-36 55t-10.5 67q0 39 17 73t50 59t81 39t110 14q58 0 107 -13.5t86.5 -38.5t61 -61t30.5 -82h-105q-8 53 -53.5 82t-126.5 29q-41 0 -70.5 -7.5t-48.5 -20.5t-28 -31t-9 -38 q0 -21 6.5 -37.5t26.5 -31t57 -29t99 -31.5q75 -21 124.5 -43.5t79 -49t41.5 -59t12 -74.5t-18.5 -80.5t-54.5 -68.5t-88.5 -47.5t-119.5 -17.5q-58 0 -108 15.5t-88.5 43.5t-63.5 68t-32 90h105q9 -61 56.5 -97t128.5 -36q45 0 79 10t56.5 27.5t34 40t11.5 48.5z"/>
<glyph glyph-name="T" horiz-adv-x="603" unicode="T" d="M593 629h-242v-629h-102v629h-239v91h583v-91z"/>
<glyph glyph-name="U" horiz-adv-x="707" unicode="U" d="M172 720v-488q0 -72 47 -116.5t136 -44.5t136 44.5t47 116.5v488h99v-479q0 -60 -20.5 -107.5t-57.5 -80.5t-89 -50.5t-116 -17.5q-65 0 -117.5 18t-89.5 51.5t-57 81t-20 105.5v479h102z"/>
<glyph glyph-name="V" horiz-adv-x="647" unicode="V" d="M647 720l-258 -720h-127l-262 720h108l218 -624l221 624h100z"/>
<glyph glyph-name="W" horiz-adv-x="963" unicode="W" d="M958 720l-190 -720h-118l-163 610l-168 -610h-125l-189 720h104l153 -599l165 599h127l156 -597l154 597h94z"/>
<glyph glyph-name="X" horiz-adv-x="652" unicode="X" d="M383 375l259 -375h-122l-193 291l-202 -291h-115l260 372l-242 348h120l183 -268l187 268h116z"/>
<glyph glyph-name="Y" horiz-adv-x="629" unicode="Y" d="M264 0v286l-264 434h112l203 -346l210 346h104l-264 -434v-286h-101z"/>
<glyph glyph-name="Z" horiz-adv-x="639" unicode="Z" d="M160 88h429v-88h-549v89l438 543h-415v88h536v-86z"/>
<glyph glyph-name="bracketleft" horiz-adv-x="340" unicode="[" d="M285 -170h-210v980h210v-80h-118v-820h118v-80z"/>
<glyph glyph-name="backslash" horiz-adv-x="400" unicode="\" d="M370 -90h-91l-249 825h91z"/>
<glyph glyph-name="bracketright" horiz-adv-x="340" unicode="]" d="M55 -90h118v820h-118v80h210v-980h-210v80z"/>
<glyph glyph-name="asciicircum" horiz-adv-x="500" unicode="^" d="M130 400h-104l179 320h90l179 -320h-104l-120 223z"/>
<glyph glyph-name="underscore" d="M30 -130v85h540v-85h-540z" unicode="_"/>
<glyph glyph-name="grave" horiz-adv-x="286" unicode="`" d="M256 598h-86l-140 137h124z"/>
<glyph glyph-name="a" horiz-adv-x="550" unicode="a" d="M243 66q27 0 53.5 9.5t47 26.5t33 39.5t12.5 49.5v67l-129 -23q-35 -6 -57.5 -14.5t-36 -20t-19 -25.5t-5.5 -31q0 -38 26 -58t75 -20zM50 375q8 72 66.5 116t156.5 44q51 0 90.5 -13t66.5 -37t41 -57t14 -73v-355h-79l-12 71q-26 -36 -68.5 -61t-105.5 -25 q-43 0 -76.5 11.5t-56.5 31.5t-35 47t-12 59q0 71 46 113t151 60l152 26v26q0 48 -31 74t-89 26q-56 0 -84 -22.5t-33 -61.5h-102z"/>
<glyph glyph-name="b" horiz-adv-x="609" unicode="b" d="M469 266q0 48 -11.5 83t-32 58.5t-48 34.5t-59.5 11t-60.5 -12t-50 -35t-34 -58.5t-12.5 -81.5q0 -95 43 -147t114 -52q68 0 109.5 48t41.5 151zM70 0v720h96v-272q26 38 69.5 62.5t104.5 24.5q51 0 93.5 -18t72.5 -52.5t46.5 -85t16.5 -115.5q0 -68 -17.5 -120t-49 -87 t-75 -53.5t-94.5 -18.5q-60 0 -101.5 23.5t-67.5 60.5l-15 -69h-79z"/>
<glyph glyph-name="c" horiz-adv-x="554" unicode="c" d="M514 167q-5 -38 -23.5 -71t-47.5 -58t-69 -39t-88 -14q-52 0 -97 17.5t-78 52t-52 85t-19 116.5q0 65 17.5 117t50 88t77.5 55t100 19q89 0 150.5 -44.5t74.5 -124.5h-106q-10 43 -40.5 65.5t-76.5 22.5q-64 0 -104.5 -48.5t-40.5 -152.5q0 -48 11.5 -83t31 -58 t46.5 -34.5t57 -11.5q48 0 80.5 26t40.5 75h105z"/>
<glyph glyph-name="d" horiz-adv-x="609" unicode="d" d="M140 255q0 -47 11.5 -82t31.5 -58.5t47.5 -35.5t60.5 -12q37 0 66 14t49.5 38.5t31 59t10.5 75.5q0 96 -42.5 147.5t-114.5 51.5q-68 0 -109.5 -48t-41.5 -150zM460 0l-17 73q-26 -38 -69 -63t-104 -25q-49 0 -91 17.5t-73 52t-48.5 85.5t-17.5 117q0 70 17.5 122 t48.5 86.5t74.5 52t95.5 17.5q60 0 100.5 -23t66.5 -58v266h96v-720h-79z"/>
<glyph glyph-name="e" horiz-adv-x="579" unicode="e" d="M292 458q-58 0 -98.5 -35.5t-51.5 -107.5h294q-5 73 -44.5 108t-99.5 35zM528 150q-10 -36 -30 -66t-49.5 -52t-68 -34.5t-85.5 -12.5q-56 0 -102.5 17t-80.5 51.5t-53 86t-19 120.5q0 68 19 119.5t52 86t79 52t100 17.5t99 -16.5t77 -52.5t50 -92t18 -135h-396 q6 -90 50.5 -131.5t109.5 -41.5q48 0 81.5 24t44.5 60h104z"/>
<glyph glyph-name="f" horiz-adv-x="322" unicode="f" d="M327 640q-24 6 -43 9t-36 3q-26 0 -40.5 -14.5t-14.5 -38.5v-79h112v-82h-112v-438h-96v438h-77v82h77v73q0 65 40 103.5t105 38.5q26 0 45.5 -3.5t39.5 -8.5v-83z"/>
<glyph glyph-name="g" horiz-adv-x="609" unicode="g" d="M140 270q0 -41 12 -73.5t32.5 -54.5t48 -33.5t58.5 -11.5q75 0 116 45.5t41 124.5q0 92 -43.5 139t-113.5 47q-66 0 -108.5 -45t-42.5 -138zM167 -35q7 -39 39.5 -61.5t89.5 -22.5q73 0 110 35t37 100v67q-26 -31 -69.5 -49.5t-103.5 -18.5q-46 0 -87.5 17t-73 49.5 t-50.5 80.5t-19 110q0 61 17 110t48 83t74.5 52t96.5 18q61 0 102.5 -23.5t66.5 -60.5l15 69h79v-509q0 -44 -16 -82t-46.5 -65.5t-75 -43t-102.5 -15.5q-105 0 -163.5 43.5t-71.5 116.5h103z"/>
<glyph glyph-name="h" horiz-adv-x="567" unicode="h" d="M70 0v720h96v-259q29 37 68 55.5t84 18.5q85 0 134.5 -50t49.5 -146v-339h-96v338q0 59 -28.5 87t-82.5 28q-27 0 -50.5 -9t-41 -26.5t-27.5 -43t-10 -57.5v-317h-96z"/>
<glyph glyph-name="i" horiz-adv-x="236" unicode="i" d="M70 0v520h96v-520h-96zM64 607v113h108v-113h-108z"/>
<glyph glyph-name="j" horiz-adv-x="236" unicode="j" d="M64 607v113h108v-113h-108zM-49 -104q17 -4 33 -6.5t27 -2.5q33 0 46 14t13 52v567h96v-572q0 -64 -36 -103.5t-104 -39.5q-17 0 -36.5 3t-38.5 9v79z"/>
<glyph glyph-name="k" horiz-adv-x="520" unicode="k" d="M70 0v720h96v-402l204 202h126l-234 -226l263 -294h-128l-231 262v-262h-96z"/>
<glyph glyph-name="l" horiz-adv-x="236" unicode="l" d="M166 0h-96v720h96v-720z"/>
<glyph glyph-name="m" horiz-adv-x="875" unicode="m" d="M70 0v520h79l10 -61q29 42 69 59t84 17q52 0 91.5 -20.5t61.5 -61.5q30 47 76 64.5t93 17.5q80 0 128 -46.5t48 -140.5v-348h-96v341q0 60 -25 86t-76 26q-29 0 -52 -11.5t-39.5 -30t-25 -43t-8.5 -51.5v-317h-96v341q0 60 -25.5 86t-75.5 26q-26 0 -49 -10.5t-40 -28.5 t-26.5 -42t-9.5 -52v-320h-96z"/>
<glyph glyph-name="n" horiz-adv-x="567" unicode="n" d="M70 0v520h79l11 -66q29 40 70 60.5t88 20.5q85 0 134.5 -50t49.5 -146v-339h-96v338q0 59 -28.5 87t-82.5 28q-26 0 -49.5 -9t-41 -26t-28 -41.5t-10.5 -55.5v-321h-96z"/>
<glyph glyph-name="o" horiz-adv-x="593" unicode="o" d="M140 260q0 -48 12 -85t33 -62t50 -37.5t63 -12.5q69 0 112 50t43 147q0 49 -12 86t-33 62t-49.5 37t-61.5 12t-62 -12.5t-50 -37.5t-33 -61.5t-12 -85.5zM40 260q0 70 20.5 122t55.5 86t81.5 50.5t99.5 16.5t100 -16.5t81.5 -50.5t54.5 -86t20 -122q0 -68 -19.5 -119.5 t-54 -86t-81.5 -52t-102 -17.5q-54 0 -101 17.5t-81.5 52.5t-54 86t-19.5 119z"/>
<glyph glyph-name="p" horiz-adv-x="609" unicode="p" d="M469 266q0 48 -11.5 83t-32 58.5t-48 34.5t-59.5 11t-60.5 -12t-50 -35t-34 -58.5t-12.5 -81.5q0 -95 43 -147t114 -52q68 0 109.5 48t41.5 151zM149 520l15 -68q28 36 72 59.5t104 23.5q51 0 93.5 -18t72.5 -52.5t46.5 -85t16.5 -115.5q0 -68 -17.5 -120t-49 -87 t-75 -53.5t-94.5 -18.5q-60 0 -101 23t-66 59v-247h-96v700h79z"/>
<glyph glyph-name="q" horiz-adv-x="609" unicode="q" d="M140 255q0 -47 11.5 -82t31.5 -58.5t47.5 -35.5t60.5 -12q37 0 66 14t49.5 38.5t31 59t10.5 75.5q0 96 -42.5 147.5t-114.5 51.5q-68 0 -109.5 -48t-41.5 -150zM539 520v-700h-96v252q-26 -38 -69.5 -62.5t-103.5 -24.5q-49 0 -91 17.5t-73 52t-48.5 85.5t-17.5 117 q0 70 17.5 122t48.5 86.5t74.5 52t95.5 17.5q60 0 102 -21.5t68 -56.5l14 63h79z"/>
<glyph glyph-name="r" horiz-adv-x="356" unicode="r" d="M70 0v520h79l13 -77q44 92 132 92q19 0 33.5 -2.5t23.5 -4.5v-96q-14 4 -29 6.5t-32 2.5q-25 0 -47.5 -9.5t-39.5 -31t-27 -56t-10 -83.5v-261h-96z"/>
<glyph glyph-name="s" horiz-adv-x="511" unicode="s" d="M374 141q0 23 -10.5 38t-30 25t-47.5 17.5t-63 15.5q-92 20 -131.5 56t-39.5 94q0 67 51.5 107.5t150.5 40.5q88 0 144 -40t69 -112h-98q-8 36 -37 56t-79 20q-54 0 -79 -18t-25 -45q0 -15 5 -26.5t18 -20.5t36.5 -17t61.5 -16q45 -10 82.5 -22.5t63.5 -31.5t40.5 -46.5 t14.5 -67.5q0 -36 -14.5 -65.5t-42.5 -51.5t-68 -34t-92 -12q-98 0 -157.5 44.5t-66.5 119.5h98q8 -47 40 -67.5t87 -20.5q59 0 89 23t30 57z"/>
<glyph glyph-name="t" horiz-adv-x="322" unicode="t" d="M302 -5q-37 -10 -71 -10q-69 0 -104 39.5t-35 104.5v309h-77v82h77l6 125h90v-125h112v-82h-112v-311q0 -58 55 -58q13 0 25 1.5t34 6.5v-82z"/>
<glyph glyph-name="u" horiz-adv-x="563" unicode="u" d="M161 520v-341q0 -58 28.5 -85t79.5 -27q33 0 57 11.5t39.5 30t23.5 43t8 51.5v317h96v-520h-79l-11 60q-28 -38 -68 -56.5t-88 -18.5q-40 0 -73.5 12t-57.5 36t-37.5 61t-13.5 87v339h96z"/>
<glyph glyph-name="v" horiz-adv-x="514" unicode="v" d="M504 520l-183 -520h-130l-181 520h105l144 -442l145 442h100z"/>
<glyph glyph-name="w" horiz-adv-x="810" unicode="w" d="M795 520l-152 -520h-111l-126 411l-124 -411h-115l-152 520h100l112 -418l124 418h115l122 -416l111 416h96z"/>
<glyph glyph-name="x" horiz-adv-x="529" unicode="x" d="M315 277l204 -277h-117l-141 201l-138 -201h-113l194 270l-182 250h115l124 -175l118 175h110z"/>
<glyph glyph-name="y" horiz-adv-x="514" unicode="y" d="M323 -7q-15 -43 -29.5 -77.5t-34 -59t-45 -38t-61.5 -13.5q-16 0 -28.5 2t-33.5 7v78q28 -7 50 -7q17 0 29.5 6.5t22 20.5t19 35.5t20.5 52.5h-31l-191 520h104l147 -442l147 442h96z"/>
<glyph glyph-name="z" horiz-adv-x="482" unicode="z" d="M143 82h309v-82h-422v91l309 348h-294v81h407v-91z"/>
<glyph glyph-name="braceleft" horiz-adv-x="340" unicode="{" d="M30 364q36 0 64 20t28 68v186q0 85 42.5 128.5t140.5 43.5v-75q-30 0 -48 -6t-27.5 -17.5t-13 -29t-3.5 -39.5v-175q0 -66 -23.5 -99.5t-61.5 -47.5q38 -14 61.5 -47.5t23.5 -99.5v-175q0 -23 3.5 -40t13 -28.5t27.5 -17.5t48 -6v-75q-98 0 -140.5 43.5t-42.5 128.5v186 q0 48 -28 68t-64 20v86z"/>
<glyph glyph-name="bar" horiz-adv-x="360" unicode="|" d="M223 785v-925h-86v925h86z"/>
<glyph glyph-name="braceright" horiz-adv-x="340" unicode="}" d="M310 278q-36 0 -64 -20t-28 -68v-186q0 -85 -42.5 -128.5t-140.5 -43.5v75q30 0 48 6t27.5 17.5t13 28.5t3.5 40v175q0 66 23.5 99.5t61.5 47.5q-38 14 -61.5 47.5t-23.5 99.5v175q0 22 -3.5 39.5t-13 29t-27.5 17.5t-48 6v75q98 0 140.5 -43.5t42.5 -128.5v-186 q0 -48 28 -68t64 -20v-86z"/>
<glyph glyph-name="asciitilde" d="M204 307q-36 0 -64 -13t-50 -32v91q19 15 52 27.5t68 12.5q31 0 55 -8.5t45 -19t41 -19t44 -8.5q36 0 64.5 13t50.5 32v-91q-19 -15 -52 -27.5t-68 -12.5q-31 0 -55 8.5t-45 19t-41.5 19t-44.5 8.5z" unicode="~"/>
<glyph glyph-name="uni00A0" horiz-adv-x="300" unicode=" "/>
<glyph glyph-name="exclamdown" horiz-adv-x="285" unicode="¡" d="M180 300l20 -480h-115l20 480h75zM200 540v-116h-115v116h115z"/>
<glyph glyph-name="cent" d="M263 -10q-43 7 -79 27.5t-62.5 54.5t-41 80t-14.5 104q0 116 53 187.5t144 87.5v129h89v-128q73 -10 123 -53t61 -113h-106q-10 43 -40.5 65.5t-76.5 22.5q-64 0 -104.5 -48.5t-40.5 -152.5q0 -48 11.5 -83t31 -58t46.5 -34.5t57 -11.5q48 0 80.5 26t40.5 75h105 q-5 -34 -20 -64t-39 -53.5t-56.5 -39.5t-72.5 -22v-123h-89v125z" unicode="¢"/>
<glyph glyph-name="sterling" d="M90 388h47v134q0 50 16 86.5t44 60t65 35t78 11.5q37 0 70 -9t59.5 -29t46 -51t28.5 -75h-101q-9 42 -34.5 62.5t-71.5 20.5q-49 0 -77 -29t-28 -84v-133h193v-78h-193v-107q0 -42 -15.5 -69.5t-40.5 -45.5h359v-88h-475v88q16 5 30 13t24.5 20.5t16.5 31t6 44.5v113h-47 v78z" unicode="£"/>
<glyph glyph-name="currency" d="M300 101q-33 0 -71 10t-68 30l-60 -60l-68 68l62 62q-16 26 -25.5 57.5t-9.5 71.5q0 38 9.5 69.5t24.5 57.5l-60 61l68 68l58 -59q30 20 68 31t72 11t72 -11t68 -31l58 59l68 -68l-60 -61q15 -26 24.5 -57.5t9.5 -69.5q0 -40 -9.5 -71.5t-25.5 -57.5l62 -62l-68 -68 l-60 60q-30 -20 -68 -30t-71 -10zM301 184q31 0 58.5 11.5t47.5 32t32 49t12 63.5t-12 63.5t-32 49t-47.5 32t-58.5 11.5q-32 0 -59.5 -11.5t-48 -32t-32.5 -49t-12 -63.5t12 -63.5t32.5 -49t48 -32t59.5 -11.5z" unicode="¤"/>
<glyph glyph-name="yen" d="M250 0v130h-140v73h140v77h-140v73h101l-203 347h112l181 -326l188 326h104l-204 -347h102v-73h-140v-77h140v-73h-140v-130h-101z" unicode="¥"/>
<glyph glyph-name="brokenbar" horiz-adv-x="360" unicode="¦" d="M223 245v-385h-86v385h86zM223 785v-385h-86v385h86z"/>
<glyph glyph-name="section" d="M161 331q0 -18 5 -32.5t20 -27.5t41.5 -25.5t69.5 -24.5q41 -13 76 -27q31 16 49 40.5t18 54.5q0 18 -6 34.5t-25.5 32t-57 30.5t-101.5 31q-14 3 -28 9q-32 -17 -46.5 -42.5t-14.5 -52.5zM531 299q0 -53 -27.5 -86.5t-67.5 -51.5q33 -23 46 -49.5t13 -56.5 q0 -66 -51.5 -106t-145.5 -40q-83 0 -140.5 39.5t-75.5 112.5h102q7 -33 36.5 -55.5t78.5 -22.5q54 0 77.5 19t23.5 48t-23 50t-85 37q-64 16 -107 35.5t-68.5 42.5t-36 50t-10.5 59q0 51 26 84t65 52q-27 22 -41 50t-14 59q0 29 12.5 55.5t37.5 46.5t62.5 32t87.5 12 q38 0 72.5 -10t63 -29.5t48.5 -48t29 -65.5h-102q-7 33 -35 56t-77 23q-54 0 -79 -19.5t-25 -48.5q0 -15 5 -27.5t17 -23t33 -19.5t53 -17q63 -16 105.5 -35t68.5 -41.5t37 -50t11 -60.5z" unicode="§"/>
<glyph glyph-name="dieresis" horiz-adv-x="390" unicode="¨" d="M256 620v100h104v-100h-104zM30 620v100h104v-100h-104z"/>
<glyph glyph-name="copyright" horiz-adv-x="884" unicode="©" d="M617 291q-4 -26 -16.5 -50.5t-34 -44t-52 -31.5t-70.5 -12q-27 0 -60 9.5t-61.5 33t-47.5 63t-19 100.5q0 58 16.5 98.5t43.5 65.5t60.5 36.5t66.5 11.5q65 0 113 -33t58 -96h-81q-7 33 -30 50t-58 17q-22 0 -42 -8t-35 -26t-24 -46t-9 -68q0 -44 10.5 -72t27 -44.5 t36 -23t37.5 -6.5q22 0 38.5 7t27.5 17.5t17 24t8 27.5h80zM741 360q0 77 -25 134.5t-66.5 95.5t-95.5 57t-112 19t-112 -19t-95.5 -57t-66.5 -95.5t-25 -134.5t25 -134.5t66.5 -95.5t95.5 -57t112 -19t112 19t95.5 57t66.5 95.5t25 134.5zM824 360q0 -99 -34 -169.5 t-88.5 -116.5t-122.5 -67.5t-137 -21.5t-137 21.5t-122.5 67.5t-88.5 116.5t-34 169.5t34 169.5t88.5 116.5t122.5 67.5t137 21.5t137 -21.5t122.5 -67.5t88.5 -116.5t34 -169.5z"/>
<glyph glyph-name="ordfeminine" horiz-adv-x="500" unicode="ª" d="M227 365q19 0 37.5 6.5t33 18t23 27.5t8.5 35v51l-80 -9q-51 -6 -73.5 -24.5t-22.5 -46.5q0 -29 19.5 -43.5t54.5 -14.5zM55 0v85h390v-85h-390zM73 614q4 25 18.5 47.5t37.5 38.5t52.5 25.5t64.5 9.5t65.5 -9.5t53 -27t35.5 -43t13 -58.5v-292h-61l-14 47 q-16 -25 -49.5 -41.5t-75.5 -16.5q-25 0 -51 6t-47 20.5t-34.5 38.5t-13.5 60q0 34 12.5 58.5t34.5 41.5t51.5 26.5t63.5 13.5l100 12v21q0 35 -19 55t-66 20q-32 0 -56.5 -12.5t-30.5 -40.5h-84z"/>
<glyph glyph-name="guillemotleft" horiz-adv-x="510" unicode="«" d="M259 315l124 205h67l-78 -208l68 -222h-67zM60 315l124 205h67l-78 -208l68 -222h-67z"/>
<glyph glyph-name="logicalnot" d="M419 112v168h-329v85h420v-253h-91z" unicode="¬"/>
<glyph glyph-name="uni00AD" horiz-adv-x="540" unicode="­" d="M90 280v85h360v-85h-360z"/>
<glyph glyph-name="registered" horiz-adv-x="644" unicode="®" d="M297 582v-81h23q17 0 27.5 11.5t10.5 30.5q0 18 -10.5 28.5t-29.5 10.5h-21zM365 367l-46 93h-22v-93h-50v255h74q38 0 64 -20t26 -59q0 -25 -12 -42.5t-32 -28.5l55 -105h-57zM322 304q34 0 68 10t61 32.5t43.5 58.5t16.5 88t-16.5 88t-43.5 58.5t-61 32.5t-68 10 q-35 0 -68.5 -10t-60.5 -32.5t-43.5 -58.5t-16.5 -88t16.5 -88t43.5 -58.5t60.5 -32.5t68.5 -10zM322 251q-42 0 -86.5 13.5t-81.5 42.5t-60.5 75t-23.5 111t23.5 111t60.5 75t81.5 42.5t86.5 13.5t86.5 -13.5t81.5 -42.5t60.5 -75t23.5 -111t-23.5 -111t-60.5 -75 t-81.5 -42.5t-86.5 -13.5z"/>
<glyph glyph-name="macron" horiz-adv-x="330" unicode="¯" d="M30 633v82h270v-82h-270z"/>
<glyph glyph-name="degree" d="M396 552q0 -39 -14 -70t-37 -52.5t-53.5 -32.5t-63.5 -11t-63.5 11t-53.5 32.5t-37 52.5t-14 70t14 70t37 52.5t53.5 32.5t63.5 11t63.5 -11t53.5 -32.5t37 -52.5t14 -70zM144 552q0 -44 23 -70t61 -26t61 26t23 70t-23 70t-61 26t-61 -26t-23 -70z" unicode="°"/>
<glyph glyph-name="plusminus" d="M90 0v85h420v-85h-420zM345 365h165v-85h-165v-128h-91v128h-164v85h164v167h91v-167z" unicode="±"/>
<glyph glyph-name="twosuperior" horiz-adv-x="413" unicode="²" d="M43 615q8 60 54 94.5t115 34.5q33 0 61.5 -9t49.5 -25.5t32.5 -41t11.5 -54.5q0 -23 -6.5 -44t-22 -43t-40 -46.5t-60.5 -54.5l-80 -51h205v-81h-309v81l131 106q27 24 44.5 42.5t28 33.5t15 28t4.5 27q0 26 -16 42t-50 16q-32 0 -51.5 -12.5t-24.5 -42.5h-92z"/>
<glyph glyph-name="threesuperior" horiz-adv-x="424" unicode="³" d="M214 744q30 0 57 -6t47.5 -20.5t33 -37t12.5 -55.5q0 -32 -22.5 -58.5t-68.5 -38.5q50 -10 77.5 -36.5t27.5 -76.5q0 -56 -43.5 -92.5t-121.5 -36.5q-77 0 -120 36t-50 89h87q8 -25 27 -38.5t55 -13.5q40 0 58.5 17.5t18.5 41.5q0 21 -6.5 35t-17.5 22t-24.5 11.5 t-28.5 3.5h-33v66h34q10 0 21 2.5t20.5 9.5t15.5 19.5t6 32.5q0 29 -20.5 40.5t-46.5 11.5q-32 0 -48 -14t-19 -33h-90q8 54 50.5 86.5t111.5 32.5z"/>
<glyph glyph-name="acute" horiz-adv-x="286" unicode="´" d="M132 735h124l-140 -137h-86z"/>
<glyph glyph-name="mu" horiz-adv-x="568" unicode="µ" d="M498 520v-520h-79l-10 56q-29 -38 -68 -54.5t-79 -16.5q-28 0 -52 8t-44 22v-195h-96v700h96v-341q0 -33 9.5 -55t24.5 -34.5t34.5 -17.5t39.5 -5q32 0 56 11t40 29t24 42t8 50v321h96z"/>
<glyph glyph-name="paragraph" d="M525 720v-900h-86v900h86zM312 720v-900h-86v555q-19 0 -46.5 8t-53 27.5t-43.5 53t-18 83.5t18 83.5t43.5 53.5t53 28t46.5 8h86z" unicode="¶"/>
<glyph glyph-name="periodcentered" horiz-adv-x="300" unicode="·" d="M92 260v116h116v-116h-116z"/>
<glyph glyph-name="cedilla" horiz-adv-x="304" unicode="¸" d="M280 -140q0 -49 -36 -79t-93 -30q-49 0 -85 26t-44 75h75q2 -14 16 -27t39 -13q24 0 39 12t15 35q0 25 -21 37.5t-73 12.5l10 111h67v-62q45 -10 68 -33.5t23 -64.5z"/>
<glyph glyph-name="onesuperior" horiz-adv-x="263" unicode="¹" d="M217 294h-87v355l-109 -52v83l114 55h82v-441z"/>
<glyph glyph-name="ordmasculine" horiz-adv-x="500" unicode="º" d="M144 515q0 -81 30.5 -116.5t76.5 -35.5q23 0 42.5 8.5t34 26.5t22.5 47t8 70t-8.5 69.5t-22.5 46.5t-34 26.5t-42 8.5q-45 0 -76 -35.5t-31 -115.5zM57 515q0 66 17 109t45 67.5t62.5 34t69.5 9.5t69.5 -9.5t62.5 -34t45 -67t17 -109.5t-17.5 -110t-45 -67.5t-62.5 -34 t-69 -9.5q-35 0 -69.5 9.5t-62 34.5t-45 68t-17.5 109zM55 0v85h380v-85h-380z"/>
<glyph glyph-name="guillemotright" horiz-adv-x="510" unicode="»" d="M137 90h-67l68 222l-78 208h67l124 -205zM336 90h-67l68 222l-78 208h67l124 -205z"/>
<glyph glyph-name="onequarter" horiz-adv-x="866" unicode="¼" d="M150 -90l420 880h91l-421 -880h-90zM246 294h-87v355l-109 -52v83l114 55h82v-441zM554 158h118v167zM751 158h65v-74h-65v-83h-79v83h-195v80l185 278h89v-284z"/>
<glyph glyph-name="onehalf" horiz-adv-x="911" unicode="½" d="M150 -90l420 880h91l-421 -880h-90zM246 294h-87v355l-109 -52v83l114 55h82v-441zM537 322q8 60 54 94.5t115 34.5q33 0 61.5 -9t49.5 -25.5t32.5 -41t11.5 -54.5q0 -23 -6.5 -44t-22 -43t-40 -46.5t-60.5 -54.5l-80 -51h205v-81h-309v81l131 106q27 24 44.5 42.5 t28 33.5t15 28t4.5 27q0 26 -16 42t-50 16q-32 0 -51.5 -12.5t-24.5 -42.5h-92z"/>
<glyph glyph-name="threequarters" horiz-adv-x="954" unicode="¾" d="M238 -90l420 880h91l-421 -880h-90zM221 744q30 0 57 -6t47.5 -20.5t33 -37t12.5 -55.5q0 -32 -22.5 -58.5t-68.5 -38.5q50 -10 77.5 -36.5t27.5 -76.5q0 -56 -43.5 -92.5t-121.5 -36.5q-77 0 -120 36t-50 89h87q8 -25 27 -38.5t55 -13.5q40 0 58.5 17.5t18.5 41.5 q0 21 -6.5 35t-17.5 22t-24.5 11.5t-28.5 3.5h-33v66h34q10 0 21 2.5t20.5 9.5t15.5 19.5t6 32.5q0 29 -20.5 40.5t-46.5 11.5q-32 0 -48 -14t-19 -33h-90q8 54 50.5 86.5t111.5 32.5zM642 158h118v167zM839 158h65v-74h-65v-83h-79v83h-195v80l185 278h89v-284z"/>
<glyph glyph-name="questiondown" horiz-adv-x="583" unicode="¿" d="M345 331q0 -43 -6 -75.5t-19.5 -58t-36.5 -45t-56 -36.5q-46 -23 -65 -54t-19 -71q0 -46 36.5 -74t98.5 -28q134 0 151 116h104q-15 -97 -83.5 -148.5t-174.5 -51.5q-54 0 -97.5 14.5t-74 40t-47 59.5t-16.5 72q0 64 35.5 115t111.5 93q19 10 31.5 22.5t19.5 28t9.5 35.5 t2.5 46h95zM353 540v-116h-115v116h115z"/>
<glyph glyph-name="Agrave" horiz-adv-x="706" unicode="À" d="M212 265h277l-137 353zM593 0l-71 182h-343l-72 -182h-107l296 720h115l295 -720h-113zM437 768h-86l-140 137h124z"/>
<glyph glyph-name="Aacute" horiz-adv-x="706" unicode="Á" d="M212 265h277l-137 353zM593 0l-71 182h-343l-72 -182h-107l296 720h115l295 -720h-113zM372 905h124l-140 -137h-86z"/>
<glyph glyph-name="Acircumflex" horiz-adv-x="706" unicode="Â" d="M212 265h277l-137 353zM593 0l-71 182h-343l-72 -182h-107l296 720h115l295 -720h-113zM525 768h-97l-75 82l-75 -82h-97l118 137h109z"/>
<glyph glyph-name="Atilde" horiz-adv-x="706" unicode="Ã" d="M212 265h277l-137 353zM593 0l-71 182h-343l-72 -182h-107l296 720h115l295 -720h-113zM408 781q-24 0 -38.5 6t-26 13t-24 13t-31.5 6q-21 0 -42 -10.5t-43 -27.5v81q22 16 43 24.5t46 8.5q24 0 38.5 -6t26.5 -13t24 -13t31 -6q22 0 40.5 10.5t40.5 27.5v-81 q-22 -16 -41 -24.5t-44 -8.5z"/>
<glyph glyph-name="Adieresis" horiz-adv-x="706" unicode="Ä" d="M212 265h277l-137 353zM593 0l-71 182h-343l-72 -182h-107l296 720h115l295 -720h-113zM413 790v100h104v-100h-104zM187 790v100h104v-100h-104z"/>
<glyph glyph-name="Aring" horiz-adv-x="706" unicode="Å" d="M286 800q0 -29 17 -46t46 -17t46.5 17t17.5 46t-17.5 46t-46.5 17t-46 -17t-17 -46zM212 265h277l-137 353zM481 800q0 -34 -16 -60.5t-45 -42.5l286 -697h-113l-71 182h-343l-72 -182h-107l285 693q-32 14 -49.5 43t-17.5 64q0 51 34.5 85.5t96.5 34.5q31 0 55.5 -9.5 t41.5 -25.5t26 -38t9 -47z"/>
<glyph glyph-name="AE" horiz-adv-x="977" unicode="Æ" d="M498 265v368l-226 -368h226zM927 0h-429v182h-277l-111 -182h-110l443 720h484v-86h-327v-226h298v-84h-298v-238h327v-86z"/>
<glyph glyph-name="Ccedilla" horiz-adv-x="729" unicode="Ç" d="M505 -140q0 -49 -36 -79t-93 -30q-49 0 -85 26t-44 75h75q2 -14 16 -27t39 -13q24 0 39 12t15 35q0 25 -21 37.5t-73 12.5l7 77q-69 5 -124 32t-94 74.5t-60 114.5t-21 153q0 91 25 161t70 117.5t107 72t136 24.5q65 0 119.5 -20t94.5 -53.5t63.5 -78.5t27.5 -94h-103 q-10 74 -64 117.5t-138 43.5q-52 0 -95 -18t-74 -54t-48 -90.5t-17 -127.5q0 -70 16.5 -124t46.5 -90.5t72 -55.5t93 -19q44 0 81 14t65 38.5t44.5 58t18.5 72.5h103q-3 -49 -23.5 -94.5t-56.5 -81.5t-85.5 -60.5t-109.5 -30.5v-29q45 -10 68 -33.5t23 -64.5z"/>
<glyph glyph-name="Egrave" horiz-adv-x="574" unicode="È" d="M495 324h-318v-238h347v-86h-449v720h449v-86h-347v-226h318v-84zM381 768h-86l-140 137h124z"/>
<glyph glyph-name="Eacute" horiz-adv-x="574" unicode="É" d="M495 324h-318v-238h347v-86h-449v720h449v-86h-347v-226h318v-84zM333 905h124l-140 -137h-86z"/>
<glyph glyph-name="Ecircumflex" horiz-adv-x="574" unicode="Ê" d="M495 324h-318v-238h347v-86h-449v720h449v-86h-347v-226h318v-84zM469 768h-97l-75 82l-75 -82h-97l118 137h109z"/>
<glyph glyph-name="Edieresis" horiz-adv-x="574" unicode="Ë" d="M495 324h-318v-238h347v-86h-449v720h449v-86h-347v-226h318v-84zM362 790v100h104v-100h-104zM136 790v100h104v-100h-104z"/>
<glyph glyph-name="Igrave" horiz-adv-x="252" unicode="Ì" d="M177 720v-720h-102v720h102zM208 768h-86l-140 137h124z"/>
<glyph glyph-name="Iacute" horiz-adv-x="252" unicode="Í" d="M177 720v-720h-102v720h102zM144 905h124l-140 -137h-86z"/>
<glyph glyph-name="Icircumflex" horiz-adv-x="252" unicode="Î" d="M177 720v-720h-102v720h102zM299 768h-97l-75 82l-75 -82h-97l118 137h109z"/>
<glyph glyph-name="Idieresis" horiz-adv-x="252" unicode="Ï" d="M177 720v-720h-102v720h102zM188 790v100h104v-100h-104zM-38 790v100h104v-100h-104z"/>
<glyph glyph-name="Eth" horiz-adv-x="708" unicode="Ð" d="M177 335v-251h135q119 0 183.5 69.5t64.5 206.5q0 71 -17.5 123.5t-50 87t-78.5 51.5t-104 17h-133v-218h205v-86h-205zM75 335h-50v86h50v299h234q79 0 144.5 -21.5t112 -66t72 -112t25.5 -160.5q0 -87 -26.5 -154.5t-74.5 -113t-114.5 -69t-145.5 -23.5h-227v335z"/>
<glyph glyph-name="Ntilde" horiz-adv-x="719" unicode="Ñ" d="M644 720v-720h-129l-347 603v-603h-93v720h135l343 -598v598h91zM428 781q-24 0 -38.5 6t-26 13t-24 13t-31.5 6q-21 0 -42 -10.5t-43 -27.5v81q22 16 43 24.5t46 8.5q24 0 38.5 -6t26.5 -13t24 -13t31 -6q22 0 40.5 10.5t40.5 27.5v-81q-22 -16 -41 -24.5t-44 -8.5z"/>
<glyph glyph-name="Ograve" horiz-adv-x="774" unicode="Ò" d="M387 68q53 0 96.5 19t75 56t49 91.5t17.5 125.5t-17.5 125.5t-49 91.5t-75 56t-96.5 19t-96.5 -19t-75 -56t-49 -91.5t-17.5 -125.5t17.5 -125.5t49 -91.5t75 -56t96.5 -19zM387 -15q-75 0 -138 25t-108 73t-70.5 118t-25.5 159q0 91 27 161t73.5 117.5t109 72 t133.5 24.5t133.5 -23.5t108.5 -71t72.5 -117.5t26.5 -163q0 -89 -26 -159t-72 -118t-108.5 -73t-135.5 -25zM466 768h-86l-140 137h124z"/>
<glyph glyph-name="Oacute" horiz-adv-x="774" unicode="Ó" d="M387 68q53 0 96.5 19t75 56t49 91.5t17.5 125.5t-17.5 125.5t-49 91.5t-75 56t-96.5 19t-96.5 -19t-75 -56t-49 -91.5t-17.5 -125.5t17.5 -125.5t49 -91.5t75 -56t96.5 -19zM387 -15q-75 0 -138 25t-108 73t-70.5 118t-25.5 159q0 91 27 161t73.5 117.5t109 72 t133.5 24.5t133.5 -23.5t108.5 -71t72.5 -117.5t26.5 -163q0 -89 -26 -159t-72 -118t-108.5 -73t-135.5 -25zM413 905h124l-140 -137h-86z"/>
<glyph glyph-name="Ocircumflex" horiz-adv-x="774" unicode="Ô" d="M387 68q53 0 96.5 19t75 56t49 91.5t17.5 125.5t-17.5 125.5t-49 91.5t-75 56t-96.5 19t-96.5 -19t-75 -56t-49 -91.5t-17.5 -125.5t17.5 -125.5t49 -91.5t75 -56t96.5 -19zM387 -15q-75 0 -138 25t-108 73t-70.5 118t-25.5 159q0 91 27 161t73.5 117.5t109 72 t133.5 24.5t133.5 -23.5t108.5 -71t72.5 -117.5t26.5 -163q0 -89 -26 -159t-72 -118t-108.5 -73t-135.5 -25zM552 768h-97l-75 82l-75 -82h-97l118 137h109z"/>
<glyph glyph-name="Otilde" horiz-adv-x="774" unicode="Õ" d="M387 68q53 0 96.5 19t75 56t49 91.5t17.5 125.5t-17.5 125.5t-49 91.5t-75 56t-96.5 19t-96.5 -19t-75 -56t-49 -91.5t-17.5 -125.5t17.5 -125.5t49 -91.5t75 -56t96.5 -19zM387 -15q-75 0 -138 25t-108 73t-70.5 118t-25.5 159q0 91 27 161t73.5 117.5t109 72 t133.5 24.5t133.5 -23.5t108.5 -71t72.5 -117.5t26.5 -163q0 -89 -26 -159t-72 -118t-108.5 -73t-135.5 -25zM444 781q-24 0 -38.5 6t-26 13t-24 13t-31.5 6q-21 0 -42 -10.5t-43 -27.5v81q22 16 43 24.5t46 8.5q24 0 38.5 -6t26.5 -13t24 -13t31 -6q22 0 40.5 10.5 t40.5 27.5v-81q-22 -16 -41 -24.5t-44 -8.5z"/>
<glyph glyph-name="Odieresis" horiz-adv-x="774" unicode="Ö" d="M387 68q53 0 96.5 19t75 56t49 91.5t17.5 125.5t-17.5 125.5t-49 91.5t-75 56t-96.5 19t-96.5 -19t-75 -56t-49 -91.5t-17.5 -125.5t17.5 -125.5t49 -91.5t75 -56t96.5 -19zM387 -15q-75 0 -138 25t-108 73t-70.5 118t-25.5 159q0 91 27 161t73.5 117.5t109 72 t133.5 24.5t133.5 -23.5t108.5 -71t72.5 -117.5t26.5 -163q0 -89 -26 -159t-72 -118t-108.5 -73t-135.5 -25zM438 790v100h104v-100h-104zM212 790v100h104v-100h-104z"/>
<glyph glyph-name="multiply" d="M299 382l121 119l60 -60l-120 -119l120 -119l-60 -60l-121 119l-119 -118l-60 60l119 118l-119 118l60 60z" unicode="×"/>
<glyph glyph-name="Oslash" horiz-adv-x="774" unicode="Ø" d="M149 360q0 -92 28 -155.5t78 -98.5l194 538q-30 8 -62 8q-53 0 -96.5 -19t-75 -56t-49 -91.5t-17.5 -125.5zM387 68q53 0 96.5 19t75 56t49 91.5t17.5 125.5q0 92 -28 155t-78 98l-196 -537q32 -8 64 -8zM387 -15q-43 0 -89 11l-37 -106h-89l47 134q-37 19 -68.5 48.5 t-55 70.5t-37 95t-13.5 122q0 102 31 173.5t80 116t110 65t121 20.5q43 0 90 -11l36 96h89l-46 -125q36 -19 68 -48.5t55 -71t36.5 -95t13.5 -120.5q0 -102 -31 -173.5t-80 -116t-110 -65t-121 -20.5z"/>
<glyph glyph-name="Ugrave" horiz-adv-x="707" unicode="Ù" d="M172 720v-488q0 -72 47 -116.5t136 -44.5t136 44.5t47 116.5v488h99v-479q0 -60 -20.5 -107.5t-57.5 -80.5t-89 -50.5t-116 -17.5q-65 0 -117.5 18t-89.5 51.5t-57 81t-20 105.5v479h102zM441 768h-86l-140 137h124z"/>
<glyph glyph-name="Uacute" horiz-adv-x="707" unicode="Ú" d="M172 720v-488q0 -72 47 -116.5t136 -44.5t136 44.5t47 116.5v488h99v-479q0 -60 -20.5 -107.5t-57.5 -80.5t-89 -50.5t-116 -17.5q-65 0 -117.5 18t-89.5 51.5t-57 81t-20 105.5v479h102zM379 905h124l-140 -137h-86z"/>
<glyph glyph-name="Ucircumflex" horiz-adv-x="707" unicode="Û" d="M172 720v-488q0 -72 47 -116.5t136 -44.5t136 44.5t47 116.5v488h99v-479q0 -60 -20.5 -107.5t-57.5 -80.5t-89 -50.5t-116 -17.5q-65 0 -117.5 18t-89.5 51.5t-57 81t-20 105.5v479h102zM528 768h-97l-75 82l-75 -82h-97l118 137h109z"/>
<glyph glyph-name="Udieresis" horiz-adv-x="707" unicode="Ü" d="M172 720v-488q0 -72 47 -116.5t136 -44.5t136 44.5t47 116.5v488h99v-479q0 -60 -20.5 -107.5t-57.5 -80.5t-89 -50.5t-116 -17.5q-65 0 -117.5 18t-89.5 51.5t-57 81t-20 105.5v479h102zM413 790v100h104v-100h-104zM187 790v100h104v-100h-104z"/>
<glyph glyph-name="Yacute" horiz-adv-x="629" unicode="Ý" d="M264 0v286l-264 434h112l203 -346l210 346h104l-264 -434v-286h-101zM370 905h124l-140 -137h-86z"/>
<glyph glyph-name="Thorn" horiz-adv-x="616" unicode="Þ" d="M177 521v-317h130q91 0 134.5 41.5t43.5 116.5t-43.5 117t-134.5 42h-130zM591 362q0 -60 -20.5 -105t-58 -75.5t-90.5 -45.5t-117 -15h-128v-121h-102v720h102v-116h128q64 0 117 -15.5t90.5 -45.5t58 -75.5t20.5 -105.5z"/>
<glyph glyph-name="germandbls" horiz-adv-x="603" unicode="ß" d="M385 -15q-82 0 -128 36t-57 105h98q9 -60 87 -60q48 0 74 23.5t26 65.5q0 41 -18.5 66t-65.5 48q-34 16 -56.5 30.5t-36 30t-19 34t-5.5 44.5q0 30 14 50t31.5 37.5t31.5 36.5t14 46q0 32 -27 53.5t-75 21.5q-51 0 -79 -33.5t-28 -93.5v-526h-96v524q0 45 13.5 84t40 67 t64 44t85.5 16q37 0 72.5 -9t63.5 -28t44.5 -47.5t16.5 -67.5q0 -41 -15 -65.5t-32.5 -41.5t-32.5 -32.5t-15 -37.5q0 -8 2.5 -15t10.5 -15t22 -17t38 -20q74 -35 104.5 -77t30.5 -103q0 -32 -13 -63t-38.5 -56t-62.5 -40t-84 -15z"/>
<glyph glyph-name="agrave" horiz-adv-x="550" unicode="à" d="M243 66q27 0 53.5 9.5t47 26.5t33 39.5t12.5 49.5v67l-129 -23q-35 -6 -57.5 -14.5t-36 -20t-19 -25.5t-5.5 -31q0 -38 26 -58t75 -20zM50 375q8 72 66.5 116t156.5 44q51 0 90.5 -13t66.5 -37t41 -57t14 -73v-355h-79l-12 71q-26 -36 -68.5 -61t-105.5 -25 q-43 0 -76.5 11.5t-56.5 31.5t-35 47t-12 59q0 71 46 113t151 60l152 26v26q0 48 -31 74t-89 26q-56 0 -84 -22.5t-33 -61.5h-102zM334 598h-86l-140 137h124z"/>
<glyph glyph-name="aacute" horiz-adv-x="550" unicode="á" d="M243 66q27 0 53.5 9.5t47 26.5t33 39.5t12.5 49.5v67l-129 -23q-35 -6 -57.5 -14.5t-36 -20t-19 -25.5t-5.5 -31q0 -38 26 -58t75 -20zM50 375q8 72 66.5 116t156.5 44q51 0 90.5 -13t66.5 -37t41 -57t14 -73v-355h-79l-12 71q-26 -36 -68.5 -61t-105.5 -25 q-43 0 -76.5 11.5t-56.5 31.5t-35 47t-12 59q0 71 46 113t151 60l152 26v26q0 48 -31 74t-89 26q-56 0 -84 -22.5t-33 -61.5h-102zM326 735h124l-140 -137h-86z"/>
<glyph glyph-name="acircumflex" horiz-adv-x="550" unicode="â" d="M243 66q27 0 53.5 9.5t47 26.5t33 39.5t12.5 49.5v67l-129 -23q-35 -6 -57.5 -14.5t-36 -20t-19 -25.5t-5.5 -31q0 -38 26 -58t75 -20zM50 375q8 72 66.5 116t156.5 44q51 0 90.5 -13t66.5 -37t41 -57t14 -73v-355h-79l-12 71q-26 -36 -68.5 -61t-105.5 -25 q-43 0 -76.5 11.5t-56.5 31.5t-35 47t-12 59q0 71 46 113t151 60l152 26v26q0 48 -31 74t-89 26q-56 0 -84 -22.5t-33 -61.5h-102zM444 598h-97l-75 82l-75 -82h-97l118 137h109z"/>
<glyph glyph-name="atilde" horiz-adv-x="550" unicode="ã" d="M243 66q27 0 53.5 9.5t47 26.5t33 39.5t12.5 49.5v67l-129 -23q-35 -6 -57.5 -14.5t-36 -20t-19 -25.5t-5.5 -31q0 -38 26 -58t75 -20zM50 375q8 72 66.5 116t156.5 44q51 0 90.5 -13t66.5 -37t41 -57t14 -73v-355h-79l-12 71q-26 -36 -68.5 -61t-105.5 -25 q-43 0 -76.5 11.5t-56.5 31.5t-35 47t-12 59q0 71 46 113t151 60l152 26v26q0 48 -31 74t-89 26q-56 0 -84 -22.5t-33 -61.5h-102zM333 611q-24 0 -38.5 6t-26 13t-24 13t-31.5 6q-21 0 -42 -10.5t-43 -27.5v81q22 16 43 24.5t46 8.5q24 0 38.5 -6t26.5 -13t24 -13t31 -6 q22 0 40.5 10.5t40.5 27.5v-81q-22 -16 -41 -24.5t-44 -8.5z"/>
<glyph glyph-name="adieresis" horiz-adv-x="550" unicode="ä" d="M243 66q27 0 53.5 9.5t47 26.5t33 39.5t12.5 49.5v67l-129 -23q-35 -6 -57.5 -14.5t-36 -20t-19 -25.5t-5.5 -31q0 -38 26 -58t75 -20zM50 375q8 72 66.5 116t156.5 44q51 0 90.5 -13t66.5 -37t41 -57t14 -73v-355h-79l-12 71q-26 -36 -68.5 -61t-105.5 -25 q-43 0 -76.5 11.5t-56.5 31.5t-35 47t-12 59q0 71 46 113t151 60l152 26v26q0 48 -31 74t-89 26q-56 0 -84 -22.5t-33 -61.5h-102zM332 620v100h104v-100h-104zM106 620v100h104v-100h-104z"/>
<glyph glyph-name="aring" horiz-adv-x="550" unicode="å" d="M243 66q27 0 53.5 9.5t47 26.5t33 39.5t12.5 49.5v67l-129 -23q-35 -6 -57.5 -14.5t-36 -20t-19 -25.5t-5.5 -31q0 -38 26 -58t75 -20zM50 375q8 72 66.5 116t156.5 44q51 0 90.5 -13t66.5 -37t41 -57t14 -73v-355h-79l-12 71q-26 -36 -68.5 -61t-105.5 -25 q-43 0 -76.5 11.5t-56.5 31.5t-35 47t-12 59q0 71 46 113t151 60l152 26v26q0 48 -31 74t-89 26q-56 0 -84 -22.5t-33 -61.5h-102zM406 700q0 -25 -9 -47t-26 -38t-41.5 -25.5t-55.5 -9.5q-62 0 -96.5 34.5t-34.5 85.5t34.5 85.5t96.5 34.5q31 0 55.5 -9.5t41.5 -25.5 t26 -38t9 -47zM211 700q0 -29 17 -46t46 -17t46.5 17t17.5 46t-17.5 46t-46.5 17t-46 -17t-17 -46z"/>
<glyph glyph-name="ae" horiz-adv-x="928" unicode="æ" d="M641 458q-25 0 -49 -7.5t-44 -23.5t-34.5 -42t-21.5 -63h293q-5 69 -44.5 102.5t-99.5 33.5zM243 66q24 0 49.5 8.5t46.5 24t34.5 37t15.5 47.5v59l-135 -17q-32 -4 -53.5 -11t-34.5 -17.5t-18.5 -24t-5.5 -31.5q0 -15 5 -28.5t17 -24t31 -16.5t48 -6zM877 150 q-10 -37 -30.5 -67.5t-50.5 -52t-68.5 -33.5t-83.5 -12q-29 0 -58 5t-57 17.5t-52.5 33t-43.5 51.5q-26 -45 -78 -76t-124 -31q-41 0 -76 9t-60.5 27.5t-40 47t-14.5 67.5q0 40 15.5 68.5t41.5 47.5t60.5 29.5t73.5 15.5l158 20v42q0 46 -30 73t-90 27q-20 0 -39.5 -4 t-36 -13.5t-27.5 -25.5t-14 -41h-102q9 76 68.5 118t154.5 42q65 0 109 -21.5t70 -62.5q39 48 90.5 66t96.5 18q54 0 98.5 -16.5t77 -51.5t50.5 -89.5t18 -131.5h-396q2 -55 18 -90t39.5 -55t50.5 -27.5t52 -7.5q49 0 82 24.5t44 59.5h104z"/>
<glyph glyph-name="ccedilla" horiz-adv-x="554" unicode="ç" d="M411 -140q0 -49 -36 -79t-93 -30q-49 0 -85 26t-44 75h75q2 -14 16 -27t39 -13q24 0 39 12t15 35q0 25 -21 37.5t-73 12.5l7 79q-45 6 -83.5 25.5t-66.5 53.5t-44 81.5t-16 107.5q0 65 17.5 117t50 88t77.5 55t100 19q89 0 150.5 -44.5t74.5 -124.5h-106 q-10 43 -40.5 65.5t-76.5 22.5q-64 0 -104.5 -48.5t-40.5 -152.5q0 -48 11.5 -83t31 -58t46.5 -34.5t57 -11.5q48 0 80.5 26t40.5 75h105q-5 -35 -20.5 -65.5t-40 -54.5t-58.5 -39.5t-75 -20.5v-29q45 -10 68 -33.5t23 -64.5z"/>
<glyph glyph-name="egrave" horiz-adv-x="579" unicode="è" d="M292 458q-58 0 -98.5 -35.5t-51.5 -107.5h294q-5 73 -44.5 108t-99.5 35zM528 150q-10 -36 -30 -66t-49.5 -52t-68 -34.5t-85.5 -12.5q-56 0 -102.5 17t-80.5 51.5t-53 86t-19 120.5q0 68 19 119.5t52 86t79 52t100 17.5t99 -16.5t77 -52.5t50 -92t18 -135h-396 q6 -90 50.5 -131.5t109.5 -41.5q48 0 81.5 24t44.5 60h104zM344 598h-86l-140 137h124z"/>
<glyph glyph-name="eacute" horiz-adv-x="579" unicode="é" d="M292 458q-58 0 -98.5 -35.5t-51.5 -107.5h294q-5 73 -44.5 108t-99.5 35zM528 150q-10 -36 -30 -66t-49.5 -52t-68 -34.5t-85.5 -12.5q-56 0 -102.5 17t-80.5 51.5t-53 86t-19 120.5q0 68 19 119.5t52 86t79 52t100 17.5t99 -16.5t77 -52.5t50 -92t18 -135h-396 q6 -90 50.5 -131.5t109.5 -41.5q48 0 81.5 24t44.5 60h104zM338 735h124l-140 -137h-86z"/>
<glyph glyph-name="ecircumflex" horiz-adv-x="579" unicode="ê" d="M292 458q-58 0 -98.5 -35.5t-51.5 -107.5h294q-5 73 -44.5 108t-99.5 35zM528 150q-10 -36 -30 -66t-49.5 -52t-68 -34.5t-85.5 -12.5q-56 0 -102.5 17t-80.5 51.5t-53 86t-19 120.5q0 68 19 119.5t52 86t79 52t100 17.5t99 -16.5t77 -52.5t50 -92t18 -135h-396 q6 -90 50.5 -131.5t109.5 -41.5q48 0 81.5 24t44.5 60h104zM459 598h-97l-75 82l-75 -82h-97l118 137h109z"/>
<glyph glyph-name="edieresis" horiz-adv-x="579" unicode="ë" d="M292 458q-58 0 -98.5 -35.5t-51.5 -107.5h294q-5 73 -44.5 108t-99.5 35zM528 150q-10 -36 -30 -66t-49.5 -52t-68 -34.5t-85.5 -12.5q-56 0 -102.5 17t-80.5 51.5t-53 86t-19 120.5q0 68 19 119.5t52 86t79 52t100 17.5t99 -16.5t77 -52.5t50 -92t18 -135h-396 q6 -90 50.5 -131.5t109.5 -41.5q48 0 81.5 24t44.5 60h104zM346 620v100h104v-100h-104zM120 620v100h104v-100h-104z"/>
<glyph glyph-name="igrave" horiz-adv-x="236" unicode="ì" d="M70 0v520h96v-520h-96zM189 598h-86l-140 137h124z"/>
<glyph glyph-name="iacute" horiz-adv-x="236" unicode="í" d="M70 0v520h96v-520h-96zM156 735h124l-140 -137h-86z"/>
<glyph glyph-name="icircumflex" horiz-adv-x="236" unicode="î" d="M70 0v520h96v-520h-96zM291 598h-97l-75 82l-75 -82h-97l118 137h109z"/>
<glyph glyph-name="idieresis" horiz-adv-x="236" unicode="ï" d="M70 0v520h96v-520h-96zM180 620v100h104v-100h-104zM-46 620v100h104v-100h-104z"/>
<glyph glyph-name="eth" horiz-adv-x="581" unicode="ð" d="M279 403q-62 0 -101.5 -42.5t-39.5 -127.5q0 -47 12.5 -79.5t32.5 -52t46.5 -28t55.5 -8.5q33 0 61.5 12t49 34t32.5 53.5t12 70.5q0 80 -44.5 124t-116.5 44zM154 751q108 -23 183 -61l29 30h103l-68 -71q69 -54 101.5 -135t32.5 -194q0 -82 -17.5 -144.5t-50.5 -105 t-79 -64t-103 -21.5q-53 0 -97.5 17t-77.5 49t-51.5 79.5t-18.5 107.5q0 56 17.5 101t48.5 77t72 49.5t89 17.5q28 0 55.5 -7t51 -19t42 -29t27.5 -36q-9 67 -33.5 115t-66.5 81l-30 -32h-103l68 71q-27 12 -58 20.5t-66 13.5v90z"/>
<glyph glyph-name="ntilde" horiz-adv-x="567" unicode="ñ" d="M70 0v520h79l11 -66q29 40 70 60.5t88 20.5q85 0 134.5 -50t49.5 -146v-339h-96v338q0 59 -28.5 87t-82.5 28q-26 0 -49.5 -9t-41 -26t-28 -41.5t-10.5 -55.5v-321h-96zM354 611q-24 0 -38.5 6t-26 13t-24 13t-31.5 6q-21 0 -42 -10.5t-43 -27.5v81q22 16 43 24.5t46 8.5 q24 0 38.5 -6t26.5 -13t24 -13t31 -6q22 0 40.5 10.5t40.5 27.5v-81q-22 -16 -41 -24.5t-44 -8.5z"/>
<glyph glyph-name="ograve" horiz-adv-x="593" unicode="ò" d="M140 260q0 -48 12 -85t33 -62t50 -37.5t63 -12.5q69 0 112 50t43 147q0 49 -12 86t-33 62t-49.5 37t-61.5 12t-62 -12.5t-50 -37.5t-33 -61.5t-12 -85.5zM40 260q0 70 20.5 122t55.5 86t81.5 50.5t99.5 16.5t100 -16.5t81.5 -50.5t54.5 -86t20 -122q0 -68 -19.5 -119.5 t-54 -86t-81.5 -52t-102 -17.5q-54 0 -101 17.5t-81.5 52.5t-54 86t-19.5 119zM360 598h-86l-140 137h124z"/>
<glyph glyph-name="oacute" horiz-adv-x="593" unicode="ó" d="M140 260q0 -48 12 -85t33 -62t50 -37.5t63 -12.5q69 0 112 50t43 147q0 49 -12 86t-33 62t-49.5 37t-61.5 12t-62 -12.5t-50 -37.5t-33 -61.5t-12 -85.5zM40 260q0 70 20.5 122t55.5 86t81.5 50.5t99.5 16.5t100 -16.5t81.5 -50.5t54.5 -86t20 -122q0 -68 -19.5 -119.5 t-54 -86t-81.5 -52t-102 -17.5q-54 0 -101 17.5t-81.5 52.5t-54 86t-19.5 119zM340 735h124l-140 -137h-86z"/>
<glyph glyph-name="ocircumflex" horiz-adv-x="593" unicode="ô" d="M140 260q0 -48 12 -85t33 -62t50 -37.5t63 -12.5q69 0 112 50t43 147q0 49 -12 86t-33 62t-49.5 37t-61.5 12t-62 -12.5t-50 -37.5t-33 -61.5t-12 -85.5zM40 260q0 70 20.5 122t55.5 86t81.5 50.5t99.5 16.5t100 -16.5t81.5 -50.5t54.5 -86t20 -122q0 -68 -19.5 -119.5 t-54 -86t-81.5 -52t-102 -17.5q-54 0 -101 17.5t-81.5 52.5t-54 86t-19.5 119zM463 598h-97l-75 82l-75 -82h-97l118 137h109z"/>
<glyph glyph-name="otilde" horiz-adv-x="593" unicode="õ" d="M140 260q0 -48 12 -85t33 -62t50 -37.5t63 -12.5q69 0 112 50t43 147q0 49 -12 86t-33 62t-49.5 37t-61.5 12t-62 -12.5t-50 -37.5t-33 -61.5t-12 -85.5zM40 260q0 70 20.5 122t55.5 86t81.5 50.5t99.5 16.5t100 -16.5t81.5 -50.5t54.5 -86t20 -122q0 -68 -19.5 -119.5 t-54 -86t-81.5 -52t-102 -17.5q-54 0 -101 17.5t-81.5 52.5t-54 86t-19.5 119zM353 611q-24 0 -38.5 6t-26 13t-24 13t-31.5 6q-21 0 -42 -10.5t-43 -27.5v81q22 16 43 24.5t46 8.5q24 0 38.5 -6t26.5 -13t24 -13t31 -6q22 0 40.5 10.5t40.5 27.5v-81q-22 -16 -41 -24.5 t-44 -8.5z"/>
<glyph glyph-name="odieresis" horiz-adv-x="593" unicode="ö" d="M140 260q0 -48 12 -85t33 -62t50 -37.5t63 -12.5q69 0 112 50t43 147q0 49 -12 86t-33 62t-49.5 37t-61.5 12t-62 -12.5t-50 -37.5t-33 -61.5t-12 -85.5zM40 260q0 70 20.5 122t55.5 86t81.5 50.5t99.5 16.5t100 -16.5t81.5 -50.5t54.5 -86t20 -122q0 -68 -19.5 -119.5 t-54 -86t-81.5 -52t-102 -17.5q-54 0 -101 17.5t-81.5 52.5t-54 86t-19.5 119zM357 620v100h104v-100h-104zM131 620v100h104v-100h-104z"/>
<glyph glyph-name="divide" d="M90 280v85h420v-85h-420zM242 464v116h116v-116h-116zM242 64v116h116v-116h-116z" unicode="÷"/>
<glyph glyph-name="oslash" horiz-adv-x="593" unicode="ø" d="M453 260q0 51 -12.5 88t-34.5 62l-154 -341q22 -6 46 -6q69 0 112 50t43 147zM140 260q0 -51 12.5 -88t35.5 -62l155 340q-21 7 -46 7q-33 0 -62 -12.5t-50 -37.5t-33 -61.5t-12 -85.5zM40 260q0 70 20.5 122t55.5 86t81.5 50.5t99.5 16.5q43 0 77 -10l49 105h89 l-64 -138q48 -33 76.5 -90t28.5 -142q0 -68 -19.5 -119.5t-54 -86t-81.5 -52t-102 -17.5q-42 0 -76 10l-48 -105h-91l64 138q-48 34 -76.5 91.5t-28.5 140.5z"/>
<glyph glyph-name="ugrave" horiz-adv-x="563" unicode="ù" d="M161 520v-341q0 -58 28.5 -85t79.5 -27q33 0 57 11.5t39.5 30t23.5 43t8 51.5v317h96v-520h-79l-11 60q-28 -38 -68 -56.5t-88 -18.5q-40 0 -73.5 12t-57.5 36t-37.5 61t-13.5 87v339h96zM349 598h-86l-140 137h124z"/>
<glyph glyph-name="uacute" horiz-adv-x="563" unicode="ú" d="M161 520v-341q0 -58 28.5 -85t79.5 -27q33 0 57 11.5t39.5 30t23.5 43t8 51.5v317h96v-520h-79l-11 60q-28 -38 -68 -56.5t-88 -18.5q-40 0 -73.5 12t-57.5 36t-37.5 61t-13.5 87v339h96zM318 735h124l-140 -137h-86z"/>
<glyph glyph-name="ucircumflex" horiz-adv-x="563" unicode="û" d="M161 520v-341q0 -58 28.5 -85t79.5 -27q33 0 57 11.5t39.5 30t23.5 43t8 51.5v317h96v-520h-79l-11 60q-28 -38 -68 -56.5t-88 -18.5q-40 0 -73.5 12t-57.5 36t-37.5 61t-13.5 87v339h96zM452 598h-97l-75 82l-75 -82h-97l118 137h109z"/>
<glyph glyph-name="udieresis" horiz-adv-x="563" unicode="ü" d="M161 520v-341q0 -58 28.5 -85t79.5 -27q33 0 57 11.5t39.5 30t23.5 43t8 51.5v317h96v-520h-79l-11 60q-28 -38 -68 -56.5t-88 -18.5q-40 0 -73.5 12t-57.5 36t-37.5 61t-13.5 87v339h96zM339 620v100h104v-100h-104zM113 620v100h104v-100h-104z"/>
<glyph glyph-name="yacute" horiz-adv-x="514" unicode="ý" d="M323 -7q-15 -43 -29.5 -77.5t-34 -59t-45 -38t-61.5 -13.5q-16 0 -28.5 2t-33.5 7v78q28 -7 50 -7q17 0 29.5 6.5t22 20.5t19 35.5t20.5 52.5h-31l-191 520h104l147 -442l147 442h96zM310 735h124l-140 -137h-86z"/>
<glyph glyph-name="thorn" horiz-adv-x="609" unicode="þ" d="M469 266q0 56 -14 92t-36 57t-49 29.5t-52 8.5q-37 0 -66 -14t-49.5 -38.5t-31 -59t-10.5 -75.5q0 -37 8.5 -72.5t27 -63.5t48.5 -45.5t73 -17.5q27 0 54 9t48.5 32t35 61t13.5 97zM70 -180v900h96v-272q26 38 69.5 62.5t104.5 24.5q41 0 82 -14t73.5 -46t53 -83.5 t20.5 -127.5q0 -70 -18.5 -122.5t-50.5 -87t-75 -52t-92 -17.5q-59 0 -99.5 22.5t-66.5 58.5v-246h-97z"/>
<glyph glyph-name="dotlessi" horiz-adv-x="236" unicode="ı" d="M70 0v520h96v-520h-96z"/>
<glyph glyph-name="OE" horiz-adv-x="991" unicode="Œ" d="M387 68q31 0 63.5 5.5t61.5 18.5v536q-29 13 -61.5 18.5t-63.5 5.5q-53 0 -96.5 -19t-75 -56t-49 -91.5t-17.5 -125.5t17 -125.5t48 -91.5t75 -56t98 -19zM941 0h-429q-23 -5 -51.5 -10t-73.5 -5q-62 0 -123 19.5t-109.5 63.5t-79 116t-30.5 176q0 102 31 173.5t80 116 t110 65t121 20.5q45 0 72.5 -4.5t52.5 -10.5h429v-86h-327v-226h298v-84h-298v-238h327v-86z"/>
<glyph glyph-name="oe" horiz-adv-x="988" unicode="œ" d="M701 458q-26 0 -50.5 -7.5t-44.5 -25t-34.5 -44.5t-20.5 -66h294q-5 73 -44.5 108t-99.5 35zM140 260q0 -53 13.5 -90t35.5 -61t50.5 -35t58.5 -11t58 11t49.5 34.5t34.5 61t13 90.5t-13.5 90.5t-35 61t-49.5 34.5t-58 11t-58 -11t-50 -35t-35.5 -61.5t-13.5 -89.5z M937 150q-10 -37 -30.5 -67.5t-50.5 -52t-68.5 -33.5t-83.5 -12q-57 0 -110 23.5t-90 79.5q-20 -30 -45 -50t-53 -31.5t-56 -16.5t-53 -5q-38 0 -83 12t-83.5 42.5t-64.5 84t-26 136.5t26 136.5t64.5 84t83.5 42.5t83 12q25 0 53 -5t56 -16.5t53 -31.5t45 -50 q18 28 41.5 47.5t49 32t52.5 18t52 5.5q54 0 98.5 -16.5t77 -52.5t50.5 -92t18 -135h-396q3 -53 19.5 -86.5t39.5 -53t50 -26.5t51 -7q49 0 82 24.5t44 59.5h104z"/>
<glyph glyph-name="Scaron" horiz-adv-x="653" unicode="Š" d="M506 195q0 25 -8 44.5t-32.5 36.5t-69 33.5t-117.5 36.5q-63 17 -105 37t-67.5 45t-36 55t-10.5 67q0 39 17 73t50 59t81 39t110 14q58 0 107 -13.5t86.5 -38.5t61 -61t30.5 -82h-105q-8 53 -53.5 82t-126.5 29q-41 0 -70.5 -7.5t-48.5 -20.5t-28 -31t-9 -38 q0 -21 6.5 -37.5t26.5 -31t57 -29t99 -31.5q75 -21 124.5 -43.5t79 -49t41.5 -59t12 -74.5t-18.5 -80.5t-54.5 -68.5t-88.5 -47.5t-119.5 -17.5q-58 0 -108 15.5t-88.5 43.5t-63.5 68t-32 90h105q9 -61 56.5 -97t128.5 -36q45 0 79 10t56.5 27.5t34 40t11.5 48.5zM373 768 h-109l-118 137h97l75 -82l75 82h97z"/>
<glyph glyph-name="scaron" horiz-adv-x="511" unicode="š" d="M374 141q0 23 -10.5 38t-30 25t-47.5 17.5t-63 15.5q-92 20 -131.5 56t-39.5 94q0 67 51.5 107.5t150.5 40.5q88 0 144 -40t69 -112h-98q-8 36 -37 56t-79 20q-54 0 -79 -18t-25 -45q0 -15 5 -26.5t18 -20.5t36.5 -17t61.5 -16q45 -10 82.5 -22.5t63.5 -31.5t40.5 -46.5 t14.5 -67.5q0 -36 -14.5 -65.5t-42.5 -51.5t-68 -34t-92 -12q-98 0 -157.5 44.5t-66.5 119.5h98q8 -47 40 -67.5t87 -20.5q59 0 89 23t30 57zM312 598h-109l-118 137h97l75 -82l75 82h97z"/>
<glyph glyph-name="Ydieresis" horiz-adv-x="629" unicode="Ÿ" d="M264 0v286l-264 434h112l203 -346l210 346h104l-264 -434v-286h-101zM376 790v100h104v-100h-104zM150 790v100h104v-100h-104z"/>
<glyph glyph-name="circumflex" horiz-adv-x="400" unicode="ˆ" d="M372 598h-97l-75 82l-75 -82h-97l118 137h109z"/>
<glyph glyph-name="caron" horiz-adv-x="400" unicode="ˇ" d="M255 598h-109l-118 137h97l75 -82l75 82h97z"/>
<glyph glyph-name="ring" horiz-adv-x="323" unicode="˚" d="M293 700q0 -25 -9 -47t-26 -38t-41.5 -25.5t-55.5 -9.5q-62 0 -96.5 34.5t-34.5 85.5t34.5 85.5t96.5 34.5q31 0 55.5 -9.5t41.5 -25.5t26 -38t9 -47zM98 700q0 -29 17 -46t46 -17t46.5 17t17.5 46t-17.5 46t-46.5 17t-46 -17t-17 -46z"/>
<glyph glyph-name="tilde" horiz-adv-x="350" unicode="˜" d="M235 611q-24 0 -38.5 6t-26 13t-24 13t-31.5 6q-21 0 -42 -10.5t-43 -27.5v81q22 16 43 24.5t46 8.5q24 0 38.5 -6t26.5 -13t24 -13t31 -6q22 0 40.5 10.5t40.5 27.5v-81q-22 -16 -41 -24.5t-44 -8.5z"/>
<glyph glyph-name="Alpha" horiz-adv-x="706" unicode="Α" d="M212 265h277l-137 353zM593 0l-71 182h-343l-72 -182h-107l296 720h115l295 -720h-113z"/>
<glyph glyph-name="Beta" horiz-adv-x="652" unicode="Β" d="M177 643v-227h171q66 0 100 31t34 82q0 54 -36.5 84t-103.5 30h-165zM177 338v-255h170q78 0 116 31t38 89q0 66 -37.5 100.5t-112.5 34.5h-174zM334 720q125 0 188 -50.5t63 -140.5q0 -26 -9 -49.5t-24.5 -43.5t-36.5 -34.5t-46 -20.5q28 -5 53 -20t44 -38.5t30 -53.5 t11 -66q0 -96 -69 -149.5t-206 -53.5h-257v720h259z"/>
<glyph glyph-name="Gamma" horiz-adv-x="496" unicode="Γ" d="M486 634h-309v-634h-102v720h411v-86z"/>
<glyph glyph-name="uni0394" horiz-adv-x="706" unicode="Δ" d="M141 86h418l-207 532zM0 0l296 720h115l295 -720h-706z"/>
<glyph glyph-name="Epsilon" horiz-adv-x="574" unicode="Ε" d="M495 324h-318v-238h347v-86h-449v720h449v-86h-347v-226h318v-84z"/>
<glyph glyph-name="Zeta" horiz-adv-x="639" unicode="Ζ" d="M160 88h429v-88h-549v89l438 543h-415v88h536v-86z"/>
<glyph glyph-name="Eta" horiz-adv-x="707" unicode="Η" d="M632 720v-720h-103v321h-352v-321h-102v720h102v-313h352v313h103z"/>
<glyph glyph-name="Theta" horiz-adv-x="774" unicode="Θ" d="M387 68q53 0 96.5 19t75 56t49 91.5t17.5 125.5t-17.5 125.5t-49 91.5t-75 56t-96.5 19t-96.5 -19t-75 -56t-49 -91.5t-17.5 -125.5t17.5 -125.5t49 -91.5t75 -56t96.5 -19zM387 -15q-75 0 -138 25t-108 73t-70.5 118t-25.5 159q0 91 27 161t73.5 117.5t109 72 t133.5 24.5t133.5 -23.5t108.5 -71t72.5 -117.5t26.5 -163q0 -89 -26 -159t-72 -118t-108.5 -73t-135.5 -25zM562 324h-350v84h350v-84z"/>
<glyph glyph-name="Iota" horiz-adv-x="252" unicode="Ι" d="M177 720v-720h-102v720h102z"/>
<glyph glyph-name="Kappa" horiz-adv-x="632" unicode="Κ" d="M492 0l-315 339v-339h-102v720h102v-320l293 320h126l-327 -344l358 -376h-135z"/>
<glyph glyph-name="Lambda" horiz-adv-x="696" unicode="Λ" d="M583 0l-236 618l-240 -618h-107l291 720h115l290 -720h-113z"/>
<glyph glyph-name="Mu" horiz-adv-x="871" unicode="Μ" d="M396 0l-222 564v-564h-99v720h142l229 -600l216 600h134v-720h-96v559l-208 -559h-96z"/>
<glyph glyph-name="Nu" horiz-adv-x="719" unicode="Ν" d="M644 720v-720h-129l-347 603v-603h-93v720h135l343 -598v598h91z"/>
<glyph glyph-name="Xi" horiz-adv-x="579" unicode="Ξ" d="M454 321h-330v90h330v-90zM529 630h-479v90h479v-90zM529 0h-479v91h479v-91z"/>
<glyph glyph-name="Omicron" horiz-adv-x="774" unicode="Ο" d="M387 -15q-75 0 -138 25t-108 73t-70.5 118t-25.5 159q0 91 27 161t73.5 117.5t109 72t133.5 24.5t133.5 -23.5t108.5 -71t72.5 -117.5t26.5 -163q0 -89 -26 -159t-72 -118t-108.5 -73t-135.5 -25zM387 68q53 0 96.5 19t75 56t49 91.5t17.5 125.5t-17.5 125.5t-49 91.5 t-75 56t-96.5 19t-96.5 -19t-75 -56t-49 -91.5t-17.5 -125.5t17.5 -125.5t49 -91.5t75 -56t96.5 -19z"/>
<glyph glyph-name="Pi" horiz-adv-x="707" unicode="Π" d="M632 720v-720h-103v634h-352v-634h-102v720h557z"/>
<glyph glyph-name="Rho" horiz-adv-x="631" unicode="Ρ" d="M177 637v-297h130q96 0 137 37.5t41 108.5q0 72 -44.5 111.5t-129.5 39.5h-134zM309 720q137 0 209.5 -59.5t72.5 -174.5q0 -110 -71.5 -169.5t-214.5 -59.5h-128v-257h-102v720h234z"/>
<glyph glyph-name="Sigma" horiz-adv-x="569" unicode="Σ" d="M157 85h377v-85h-499v86l245 275l-245 273v86h499v-85h-377l215 -239v-71z"/>
<glyph glyph-name="Tau" horiz-adv-x="603" unicode="Τ" d="M593 629h-242v-629h-102v629h-239v91h583v-91z"/>
<glyph glyph-name="Upsilon" horiz-adv-x="629" unicode="Υ" d="M264 0v286l-264 434h112l203 -346l210 346h104l-264 -434v-286h-101z"/>
<glyph glyph-name="Phi" horiz-adv-x="856" unicode="Φ" d="M707 360q0 66 -16.5 113t-46.5 77.5t-72 45t-93 16.5v-504q51 1 93 16t72 45.5t46.5 77.5t16.5 113zM149 360q0 -66 16.5 -113t46.5 -77.5t72 -45.5t93 -16v504q-51 -2 -93 -16.5t-72 -45t-46.5 -77.5t-16.5 -113zM479 735v-40q69 -2 129.5 -24t105.5 -64t71 -104 t26 -143t-24.5 -142.5t-68.5 -104t-105 -65t-134 -23.5v-40h-102v40q-73 1 -134 23.5t-105 65t-68.5 104t-24.5 142.5t26 143t71 104t105.5 64t129.5 24v40h102z"/>
<glyph glyph-name="Chi" horiz-adv-x="652" unicode="Χ" d="M383 375l259 -375h-122l-193 291l-202 -291h-115l260 372l-242 348h120l183 -268l187 268h116z"/>
<glyph glyph-name="Psi" horiz-adv-x="767" unicode="Ψ" d="M162 720v-311q0 -64 41.5 -105t131.5 -51v467h102v-466q88 10 129.5 51t41.5 104v311h99v-302q0 -109 -68.5 -174.5t-201.5 -76.5v-167h-102v167q-137 11 -206 77t-69 174v302h102z"/>
<glyph glyph-name="alpha" horiz-adv-x="604" unicode="α" d="M140 255q0 -94 41 -141t107 -47q36 0 65 14t49 38.5t30.5 59t10.5 75.5q0 96 -43 147.5t-112 51.5q-68 0 -108 -48t-40 -150zM455 0l-17 72q-26 -38 -68.5 -62.5t-102.5 -24.5q-49 0 -90.5 17.5t-72 52t-47.5 85.5t-17 117q0 70 17 122t47.5 86.5t72.5 52t93 17.5 q59 0 100.5 -24t67.5 -61l15 70h81v-520h-79z"/>
<glyph glyph-name="beta" horiz-adv-x="570" unicode="β" d="M274 655q-54 0 -81 -30.5t-27 -99.5v-336q0 -27 11 -50t29 -39.5t42 -25.5t50 -9q59 0 94 33.5t35 100.5q0 74 -35 110t-90 36h-33v83h31q40 0 64 31t24 83t-28 82.5t-86 30.5zM70 -180v700q0 103 54 159t152 56q48 0 86.5 -13t66 -36.5t42.5 -57.5t15 -76 q0 -54 -25.5 -97t-80.5 -61q30 -5 56.5 -22.5t46 -43.5t31 -58.5t11.5 -67.5q0 -50 -16 -90t-43.5 -68.5t-65.5 -43.5t-82 -15q-54 0 -91 18.5t-61 52.5v-236h-96z"/>
<glyph glyph-name="gamma" horiz-adv-x="514" unicode="γ" d="M207 -180v180l-197 520h104l143 -428l146 428h101l-201 -520v-180h-96z"/>
<glyph glyph-name="delta" horiz-adv-x="573" unicode="δ" d="M282 403q-66 0 -105 -44t-39 -126t37.5 -125t104.5 -43q33 0 62 12t50.5 34t34.5 53.5t13 70.5q0 37 -11.5 68t-32 53t-49.5 34.5t-65 12.5zM134 720h356v-82h-160q45 -12 82 -39.5t64 -69.5t42 -97t15 -122q0 -77 -17.5 -137.5t-50 -102t-79 -63.5t-104.5 -22 q-53 0 -97 17t-76.5 49.5t-50.5 79.5t-18 107q0 55 17.5 100t48 77.5t72.5 50t90 17.5q28 0 55.5 -7t51 -19t41.5 -29t27 -36q-7 52 -34 96t-68.5 77t-94.5 54t-112 27v74z"/>
<glyph glyph-name="epsilon" horiz-adv-x="534" unicode="ε" d="M262 65q59 0 89 23.5t38 73.5h105q-6 -38 -23.5 -70.5t-46.5 -56t-69.5 -37t-91.5 -13.5q-112 0 -167.5 44t-55.5 113q0 46 31 82t87 49q-50 14 -75.5 46t-25.5 71q0 31 12.5 57.5t37.5 46t62 30.5t87 11q48 0 88.5 -12t71 -34t50 -52t25.5 -66h-106q-9 40 -41 63.5 t-86 23.5q-52 0 -77.5 -20.5t-25.5 -52.5q0 -36 25 -55.5t74 -19.5h52v-83h-54q-57 0 -85.5 -23t-28.5 -59q0 -80 124 -80z"/>
<glyph glyph-name="zeta" horiz-adv-x="448" unicode="ζ" d="M40 642v78h398v-68q-146 -56 -222.5 -159t-76.5 -233q0 -88 38.5 -135t115.5 -61q81 -15 112 -45.5t31 -83.5q0 -20 -6.5 -39t-17 -35.5t-24 -30.5t-26.5 -25l-58 44q15 16 29 35.5t14 39.5q0 26 -20 40t-74 23q-51 8 -90.5 30.5t-66.5 55.5t-41 76t-14 93 q0 140 68.5 244.5t191.5 155.5h-261z"/>
<glyph glyph-name="eta" horiz-adv-x="567" unicode="η" d="M70 0v520h79l11 -66q29 40 70 60.5t88 20.5q85 0 134.5 -50t49.5 -146v-519h-96v518q0 59 -28.5 87t-82.5 28q-26 0 -49.5 -9.5t-41 -26.5t-28 -41.5t-10.5 -55.5v-320h-96z"/>
<glyph glyph-name="theta" horiz-adv-x="590" unicode="θ" d="M295 655q-71 0 -109.5 -59t-43.5 -189h306q-6 130 -44.5 189t-108.5 59zM295 65q72 0 110 62t43 198h-307q5 -136 43.5 -198t110.5 -62zM295 -15q-53 0 -99.5 22t-81 68.5t-54.5 117.5t-20 169q0 100 20 171t54.5 116t81 65.5t99.5 20.5t99.5 -20.5t81 -65.5t54.5 -116 t20 -171q0 -98 -20 -169t-54.5 -117.5t-81 -68.5t-99.5 -22z"/>
<glyph glyph-name="iota" horiz-adv-x="236" unicode="ι" d="M70 0v520h96v-520h-96z"/>
<glyph glyph-name="kappa" horiz-adv-x="520" unicode="κ" d="M70 0v520h96v-211l204 211h126l-233 -231l262 -289h-128l-231 253v-253h-96z"/>
<glyph glyph-name="lambda" horiz-adv-x="516" unicode="λ" d="M506 0h-101l-149 442l-150 -442h-96l189 520h30q-16 44 -28 70.5t-23 41t-22 19t-26 4.5q-22 0 -50 -7v78q21 5 33.5 7t28.5 2q29 0 52 -8.5t44 -32t41.5 -64t43.5 -103.5z"/>
<glyph glyph-name="uni03BC" horiz-adv-x="568" unicode="μ" d="M498 520v-520h-79l-10 56q-29 -38 -68 -54.5t-79 -16.5q-28 0 -52 8t-44 22v-195h-96v700h96v-341q0 -33 9.5 -55t24.5 -34.5t34.5 -17.5t39.5 -5q32 0 56 11t40 29t24 42t8 50v321h96z"/>
<glyph glyph-name="nu" horiz-adv-x="514" unicode="ν" d="M504 520l-183 -520h-130l-181 520h105l144 -442l145 442h100z"/>
<glyph glyph-name="xi" horiz-adv-x="505" unicode="ξ" d="M45 642v78h393v-69h-20q-68 0 -116.5 -12t-79.5 -33t-45 -49t-14 -60q0 -44 28.5 -73t72.5 -29h110v-83h-112q-26 0 -47.5 -9.5t-37.5 -25t-24.5 -37t-8.5 -45.5q0 -51 36.5 -83t117.5 -48q47 -9 79 -21.5t51.5 -28.5t28 -36.5t8.5 -45.5q0 -29 -19 -58.5t-67 -68.5 l-59 44q15 16 30.5 35.5t15.5 39.5q0 12 -4 21.5t-16 17t-33 13t-55 11.5q-106 18 -159 70t-53 130q0 68 34 111t99 60q-24 7 -43.5 21t-33.5 32.5t-21.5 39.5t-7.5 42q0 52 28.5 89.5t99.5 59.5h-156z"/>
<glyph glyph-name="omicron" horiz-adv-x="593" unicode="ο" d="M140 260q0 -48 12 -85t33 -62t50 -37.5t63 -12.5q69 0 112 50t43 147q0 49 -12 86t-33 62t-49.5 37t-61.5 12t-62 -12.5t-50 -37.5t-33 -61.5t-12 -85.5zM40 260q0 70 20.5 122t55.5 86t81.5 50.5t99.5 16.5t100 -16.5t81.5 -50.5t54.5 -86t20 -122q0 -68 -19.5 -119.5 t-54 -86t-81.5 -52t-102 -17.5q-54 0 -101 17.5t-81.5 52.5t-54 86t-19.5 119z"/>
<glyph glyph-name="pi" horiz-adv-x="568" unicode="π" d="M70 0v438h-65v82h558v-82h-65v-438h-96v438h-236v-438h-96z"/>
<glyph glyph-name="rho" horiz-adv-x="604" unicode="ρ" d="M156 266q0 -95 43 -147t114 -52q68 0 109.5 48t41.5 151q0 48 -11.5 83t-32 58.5t-48 34.5t-59.5 11q-70 0 -113.5 -46.5t-43.5 -140.5zM65 270q1 61 16.5 110.5t47 83.5t79 52.5t112.5 18.5q54 0 99 -18.5t77.5 -53t50 -85t17.5 -114.5q0 -68 -17.5 -120t-49 -87 t-75 -53.5t-94.5 -18.5q-60 0 -101 23t-66 59v-247h-96v450z"/>
<glyph glyph-name="sigma1" horiz-adv-x="550" unicode="ς" d="M142 269q0 -46 10 -80.5t32.5 -59t60 -39.5t92.5 -22q89 -11 125 -45t36 -87q0 -20 -7.5 -38t-20 -34.5t-27.5 -31t-30 -27.5l-58 44q17 17 30.5 36t13.5 39q0 27 -21.5 43t-84.5 21q-57 4 -103.5 24t-80 55.5t-51.5 85t-18 114.5q0 60 17.5 109t50 84.5t77.5 55 t100 19.5q89 0 150.5 -44.5t74.5 -124.5h-106q-10 43 -40.5 65.5t-76.5 22.5q-64 0 -104.5 -47t-40.5 -138z"/>
<glyph glyph-name="sigma" horiz-adv-x="593" unicode="σ" d="M140 260q0 -48 12 -85t33 -62t50 -37.5t63 -12.5q69 0 112 50t43 147q0 69 -23.5 117.5t-59.5 71.5q-14 3 -34.5 5.5t-38.5 2.5q-33 0 -62 -12.5t-50 -37.5t-33 -61.5t-12 -85.5zM494 442q26 -32 42.5 -78.5t16.5 -103.5q0 -68 -19.5 -119.5t-54 -86t-81.5 -52 t-102 -17.5q-54 0 -101 17.5t-81.5 52.5t-54 86t-19.5 119q0 69 19.5 120.5t54 86t80.5 51.5t99 17q50 0 95 -15h185v-81z"/>
<glyph glyph-name="tau" horiz-adv-x="480" unicode="τ" d="M192 0v438h-177v82h450v-82h-177v-438h-96z"/>
<glyph glyph-name="upsilon" horiz-adv-x="569" unicode="υ" d="M285 -15q-48 0 -87.5 12t-68 36t-44 61t-15.5 87v339h96v-341q0 -58 34 -85t85 -27t84.5 27t33.5 85v341h96v-339q0 -50 -15.5 -87t-44 -61t-67.5 -36t-87 -12z"/>
<glyph glyph-name="phi" horiz-adv-x="732" unicode="φ" d="M405 66q54 3 90 16t57.5 38.5t31 65t9.5 95.5q0 50 -7 83.5t-20 53t-32 27.5t-44 8q-44 0 -64.5 -31.5t-20.5 -113.5v-242zM309 326q0 100 45.5 154.5t136.5 54.5q95 0 148 -59.5t53 -195.5q0 -66 -15.5 -118.5t-49.5 -89.5t-89 -59t-133 -26v-167h-96v167 q-72 4 -123.5 21.5t-83.5 47.5t-47 74t-15 101q0 78 19.5 150t48.5 139h96q-30 -77 -49 -144.5t-19 -140.5q0 -41 8.5 -70.5t29 -50t53.5 -32t82 -15.5v259z"/>
<glyph glyph-name="chi" horiz-adv-x="529" unicode="χ" d="M315 187l204 -367h-117l-141 286l-138 -286h-113l194 360l-182 340h115l124 -260l118 260h110z"/>
<glyph glyph-name="psi" horiz-adv-x="747" unicode="ψ" d="M167 520v-288q0 -64 40 -106t121 -52v446h96v-446q79 11 119 53t40 105v288h94v-279q0 -109 -66.5 -175.5t-186.5 -77.5v-168h-96v167q-62 6 -110 26t-81 53t-50 77.5t-17 97.5v279h97z"/>
<glyph glyph-name="endash" horiz-adv-x="460" unicode="–" d="M30 280v85h400v-85h-400z"/>
<glyph glyph-name="emdash" horiz-adv-x="660" unicode="—" d="M30 280v85h600v-85h-600z"/>
<glyph glyph-name="quoteleft" horiz-adv-x="290" unicode="‘" d="M87 555q0 43 11.5 73t30.5 49.5t42 29.5t47 13v-50q-28 -6 -45 -28t-17 -72h47v-116h-116v101z"/>
<glyph glyph-name="quotesinglbase" horiz-adv-x="290" unicode="‚" d="M203 15q0 -43 -11.5 -73t-30.5 -49.5t-42 -29.5t-47 -13v50q28 6 45 28t17 72h-47v116h116v-101z"/>
<glyph glyph-name="quotedblleft" horiz-adv-x="461" unicode="“" d="M258 555q0 43 11.5 73t30.5 49.5t42 29.5t47 13v-50q-28 -6 -45 -28t-17 -72h47v-116h-116v101zM87 555q0 43 11.5 73t30.5 49.5t42 29.5t47 13v-50q-28 -6 -45 -28t-17 -72h47v-116h-116v101z"/>
<glyph glyph-name="quotedblright" horiz-adv-x="461" unicode="”" d="M203 619q0 -43 -11.5 -73t-30.5 -49.5t-42 -29.5t-47 -13v50q28 6 45 28t17 72h-47v116h116v-101zM374 619q0 -43 -11.5 -73t-30.5 -49.5t-42 -29.5t-47 -13v50q28 6 45 28t17 72h-47v116h116v-101z"/>
<glyph glyph-name="dagger" d="M347 533h185v-90h-185v-443h-96v443h-184v90h184v187h96v-187z" unicode="†"/>
<glyph glyph-name="daggerdbl" d="M347 173v-173h-96v173h-184v90h184v180h-184v90h184v187h96v-187h185v-90h-185v-180h185v-90h-185z" unicode="‡"/>
<glyph glyph-name="ellipsis" horiz-adv-x="900" unicode="…" d="M692 0v116h116v-116h-116zM392 0v116h116v-116h-116zM92 0v116h116v-116h-116z"/>
<glyph glyph-name="perthousand" horiz-adv-x="1216" unicode="‰" d="M936 154q0 -54 26 -76.5t63 -22.5t64 22.5t27 76.5t-27 76.5t-64 22.5t-63 -22.5t-26 -76.5zM1196 154q0 -42 -14.5 -74t-38.5 -53t-54.5 -31.5t-63.5 -10.5t-63.5 10.5t-54 31.5t-38 53t-14.5 74t14.5 74t38 53t54 31.5t63.5 10.5t63.5 -10.5t54.5 -31.5t38.5 -53 t14.5 -74zM546 154q0 -54 26 -76.5t63 -22.5t64 22.5t27 76.5t-27 76.5t-64 22.5t-63 -22.5t-26 -76.5zM806 154q0 -42 -14.5 -74t-38.5 -53t-54.5 -31.5t-63.5 -10.5t-63.5 10.5t-54 31.5t-38 53t-14.5 74t14.5 74t38 53t54 31.5t63.5 10.5t63.5 -10.5t54.5 -31.5t38.5 -53 t14.5 -74zM274 0h-96l382 700h96zM116 546q0 -54 26 -76.5t63 -22.5t64 22.5t27 76.5t-27 76.5t-64 22.5t-63 -22.5t-26 -76.5zM376 546q0 -42 -14.5 -74t-38.5 -53t-54.5 -31.5t-63.5 -10.5t-63.5 10.5t-54 31.5t-38 53t-14.5 74t14.5 74t38 53t54 31.5t63.5 10.5 t63.5 -10.5t54.5 -31.5t38.5 -53t14.5 -74z"/>
<glyph glyph-name="minute" horiz-adv-x="270" unicode="′" d="M160 490h-70l5 153v92h100v-92z"/>
<glyph glyph-name="second" d="M315 490h-70l5 153v92h100v-92zM155 490h-70l5 153v92h100v-92z" unicode="″"/>
<glyph glyph-name="guilsinglleft" horiz-adv-x="311" unicode="‹" d="M60 315l124 205h67l-78 -208l68 -222h-67z"/>
<glyph glyph-name="guilsinglright" horiz-adv-x="311" unicode="›" d="M137 90h-67l68 222l-78 208h67l124 -205z"/>
<glyph glyph-name="uni203E" d="M30 580v85h540v-85h-540z" unicode="‾"/>
<glyph glyph-name="fraction" horiz-adv-x="228" unicode="⁄" d="M-144 -90l420 880h91l-421 -880h-90z"/>
<glyph glyph-name="uni2074" horiz-adv-x="428" unicode="⁴" d="M120 451h118v167zM317 451h65v-74h-65v-83h-79v83h-195v80l185 278h89v-284z"/>
<glyph glyph-name="Euro" d="M23 459h49q12 63 37 111t61 80t82 48.5t99 16.5q55 0 97.5 -15.5t73.5 -42t49.5 -62t24.5 -76.5h-104q-11 51 -46 81t-95 30q-70 0 -114.5 -41.5t-60.5 -129.5h243l-20 -78h-232v-50q0 -9 1 -18h211l-20 -78h-182q35 -164 175 -164q55 0 90.5 28.5t49.5 84.5h105 q-9 -42 -29 -78t-50.5 -63t-72.5 -42.5t-95 -15.5q-109 0 -181.5 63.5t-95.5 186.5h-70l20 78h41q-1 9 -1 18v34q0 8 1 16h-61z" unicode="€"/>
<glyph glyph-name="trademark" horiz-adv-x="840" unicode="™" d="M524 324l-95 320v-320h-71v330h-136v-330h-77v330h-120v66h455l85 -300l80 300h120v-396h-73v320l-89 -320h-79z"/>
<glyph glyph-name="arrowleft" d="M163 409h417v-84h-417l164 -211h-111l-196 253l196 253h111z" unicode="←"/>
<glyph glyph-name="arrowup" d="M345 506v-419h-90v419l-208 -161v106l253 196l253 -196v-106z" unicode="↑"/>
<glyph glyph-name="arrowright" d="M437 325h-417v84h417l-164 211h111l196 -253l-196 -253h-111z" unicode="→"/>
<glyph glyph-name="arrowdown" d="M255 227v420h90v-420l208 162v-106l-253 -196l-253 196v106z" unicode="↓"/>
<glyph glyph-name="partialdiff" horiz-adv-x="581" unicode="∂" d="M279 403q-62 0 -101.5 -42.5t-39.5 -127.5q0 -47 12.5 -79.5t32.5 -52t46.5 -28t55.5 -8.5q33 0 61.5 12t49 34t32.5 53.5t12 70.5q0 80 -44.5 124t-116.5 44zM154 751q97 -20 169 -54t119 -86.5t70 -124.5t23 -166q0 -82 -17.5 -144.5t-50.5 -105t-79 -64t-103 -21.5 q-53 0 -97.5 17t-77.5 49t-51.5 79.5t-18.5 107.5q0 56 17.5 101t48.5 77t72 49.5t89 17.5q28 0 55.5 -7t51 -19t42 -29t27.5 -36q-8 63 -30.5 109t-59 78.5t-86.5 52.5t-113 29v90z"/>
<glyph glyph-name="Delta" horiz-adv-x="706" unicode="∆" d="M141 86h418l-207 532zM0 0l296 720h115l295 -720h-706z"/>
<glyph glyph-name="product" d="M75 0v614h-65v86h580v-86h-65v-614h-103v614h-245v-614h-102z" unicode="∏"/>
<glyph glyph-name="summation" d="M394 271l-221 -366h383v-85h-506v83l228 368l-228 366v83h506v-85h-383z" unicode="∑"/>
<glyph glyph-name="minus" d="M90 280v85h420v-85h-420z" unicode="−"/>
<glyph glyph-name="radical" d="M189 0l-174 460h100l128 -350l217 692h200v-82h-126l-234 -720h-111z" unicode="√"/>
<glyph glyph-name="infinity" horiz-adv-x="790" unicode="∞" d="M249 456q-50 0 -77 -29.5t-27 -76.5q0 -48 26.5 -77t72.5 -29q22 0 42 9.5t36.5 25.5t27 36.5t12.5 42.5q-1 9 -9.5 25t-23 32.5t-35 28.5t-45.5 12zM541 244q50 0 77 29.5t27 76.5q0 48 -26.5 77t-72.5 29q-22 0 -42 -9.5t-36.5 -25.5t-27 -36.5t-12.5 -42.5 q1 -9 9.5 -25t23 -32.5t35 -28.5t45.5 -12zM241 528q41 0 83 -23t71 -66q27 45 68 67t89 22q50 0 85 -16t56.5 -41.5t31.5 -57t10 -63.5q0 -30 -10 -61.5t-32 -57.5t-57.5 -42.5t-86.5 -16.5q-41 0 -83 22.5t-71 65.5q-27 -45 -68 -66.5t-89 -21.5q-50 0 -85 16t-56.5 41.5 t-31.5 57t-10 63.5q0 30 10 61.5t32 57.5t57.5 42.5t86.5 16.5z"/>
<glyph glyph-name="intersection" d="M300 579q48 0 90 -18t73.5 -49.5t49.5 -73.5t18 -90v-310h-95v310q0 30 -9.5 57.5t-27 48t-43 32.5t-56.5 12q-32 0 -57 -12t-42.5 -32.5t-27 -48t-9.5 -57.5v-310h-95v310q0 48 18 90t49.5 73.5t73.5 49.5t90 18z" unicode="∩"/>
<glyph glyph-name="approxequal" d="M204 207q-36 0 -64 -13t-50 -32v91q19 15 52 27.5t68 12.5q31 0 55 -8.5t45 -19t41 -19t44 -8.5q36 0 64.5 13t50.5 32v-91q-19 -15 -52 -27.5t-68 -12.5q-31 0 -55 8.5t-45 19t-41.5 19t-44.5 8.5zM204 411q-36 0 -64 -13t-50 -32v91q19 15 52 27.5t68 12.5 q31 0 55 -8.5t45 -19t41 -19t44 -8.5q36 0 64.5 13t50.5 32v-91q-19 -15 -52 -27.5t-68 -12.5q-31 0 -55 8.5t-45 19t-41.5 19t-44.5 8.5z" unicode="≈"/>
<glyph glyph-name="notequal" d="M256 177l-85 -137h-89l85 137h-77v85h129l75 120h-204v85h256l83 133h89l-83 -133h75v-85h-127l-75 -120h202v-85h-254z" unicode="≠"/>
<glyph glyph-name="equivalence" d="M90 382v85h420v-85h-420zM90 177v85h420v-85h-420zM90 -28v85h420v-85h-420z" unicode="≡"/>
<glyph glyph-name="lessequal" d="M185 330l325 -109v-96l-420 160v95l420 180v-96l-325 -129v-5zM90 0v85h420v-85h-420z" unicode="≤"/>
<glyph glyph-name="greaterequal" d="M415 335l-325 129v96l420 -180v-95l-420 -160v96l325 109v5zM90 0v85h420v-85h-420z" unicode="≥"/>
<glyph glyph-name="lozenge" d="M295 630l-155 -280l155 -280l166 280zM346 0h-106l-200 350l201 350h105l214 -350z" unicode="◊"/>
<glyph glyph-name="spade" horiz-adv-x="652" unicode="♠" d="M554 78l48 -78h-552l48 78h187l19 162q-25 -42 -58 -60.5t-78 -18.5q-54 0 -86 34t-32 92q0 40 19 79.5t55 82t87 91t115 107.5q64 -59 115 -107.5t87 -91t55 -82t19 -79.5q0 -58 -32 -92t-86 -34q-45 0 -78 18.5t-58 60.5l19 -162h187z"/>
<glyph glyph-name="club" horiz-adv-x="652" unicode="♣" d="M554 78l48 -78h-552l48 78h187l19 162q-25 -42 -56 -60.5t-73 -18.5q-27 0 -50 9t-39.5 25.5t-26 40t-9.5 51.5q0 66 29.5 103t86.5 37q27 0 42 -3t38 -14q-12 10 -23 21q-12 12 -21 26.5t-14.5 33t-5.5 42.5q0 58 39.5 86t104.5 28t104.5 -28t39.5 -86q0 -24 -5.5 -42.5 t-14.5 -33t-21 -26t-23 -21.5q22 11 37.5 14t42.5 3q57 0 86.5 -37t29.5 -103q0 -28 -9.5 -51.5t-26 -40t-39.5 -25.5t-50 -9q-43 0 -74 18.5t-55 60.5l19 -162h187z"/>
<glyph glyph-name="heart" horiz-adv-x="700" unicode="♥" d="M350 0q-63 56 -118 113t-95.5 113.5t-63.5 112.5t-23 109q0 30 9.5 57t27.5 47.5t43.5 32.5t58.5 12q62 0 98 -32.5t63 -90.5q27 58 63 90.5t98 32.5q33 0 58.5 -12t43.5 -32.5t27.5 -47.5t9.5 -57q0 -53 -23.5 -108.5t-64 -112.5t-95 -114t-117.5 -113z"/>
<glyph glyph-name="diamond" horiz-adv-x="570" unicode="♦" d="M50 320l235 328l235 -328l-235 -333z"/>
</font>
</defs>
</svg>
